<?xml version="1.0" encoding="UTF-8"?>
<svg version="1.1" xmlns="http://www.w3.org/2000/svg" width="64" height="64">
<path d="M0 0 C1.33849671 0.99307821 2.67151309 1.99357052 4 3 C5.94646311 3.34748769 5.94646311 3.34748769 8.0625 3.5 C12 4 12 4 14 5.4375 C15 7 15 7 15 9 C15.78375 9.268125 16.5675 9.53625 17.375 9.8125 C20 11 20 11 22 14 C22.23828125 16.15625 22.23828125 16.15625 22.3125 18.5 C22.46411593 20.87827377 22.46411593 20.87827377 23 23 C25.35589996 24.88051585 25.35589996 24.88051585 28 26 C30.32402951 29.20937409 30.47570691 32.11506021 30 36 C28.20006226 38.69990662 26.916227 40.5418865 24 42 C20.32670036 42.13357453 17.50147041 42.1671568 14 41 C13.01 41.495 13.01 41.495 12 42 C8.90334962 42.31569929 5.79827954 42.32411736 2.6875 42.375 C1.40456055 42.43107422 1.40456055 42.43107422 0.09570312 42.48828125 C-4.3501705 42.55026864 -6.38198983 42.44917639 -10.07421875 39.765625 C-12.05204075 36.92526399 -12.54646547 35.75536296 -12.5 32.375 C-12.57591733 30.05920245 -12.57591733 30.05920245 -13 28 C-15.35589996 26.11948415 -15.35589996 26.11948415 -18 25 C-20.32402951 21.79062591 -20.47570691 18.88493979 -20 15 C-18.3332946 12.52867821 -16.58098052 10.5577413 -14.4375 8.5 C-12.8325205 6.94153949 -12.8325205 6.94153949 -11.5 4.4375 C-8.51143032 -0.41892573 -5.33664269 -0.46812655 0 0 Z " fill="#9A9DB5" transform="translate(27,11)"/>
<path d="M0 0 C0.99 0.66 1.98 1.32 3 2 C3 2.66 3 3.32 3 4 C4.0725 3.731875 5.145 3.46375 6.25 3.1875 C7.4875 3.125625 8.725 3.06375 10 3 C12.125 5.25 12.125 5.25 14 8 C16.58443323 9.73490246 16.58443323 9.73490246 19 11 C20 12 20 12 20.0625 15.0625 C20.041875 16.031875 20.02125 17.00125 20 18 C12.47761194 17.37313433 12.47761194 17.37313433 10 15.4375 C7.28898544 13.48895828 5.18726649 13.45799243 1.90234375 13.57421875 C-0.31076186 13.89869268 -0.31076186 13.89869268 -2.4375 16.3125 C-4.10106097 18.96410548 -4.10106097 18.96410548 -5 22 C-8 24 -8 24 -11.5 23.9375 C-15 23 -15 23 -16.9375 20.75 C-18.0784347 17.79699255 -18.55960893 16.11782117 -18 13 C-16.1875 10.6875 -16.1875 10.6875 -14 9 C-13.01 9 -12.02 9 -11 9 C-11.0825 8.2575 -11.165 7.515 -11.25 6.75 C-11 4 -11 4 -9.4375 1.6875 C-6.12495909 -0.60579756 -3.9483695 -0.43073122 0 0 Z " fill="#9C9FB7" transform="translate(27,13)"/>
<path d="M0 0 C1.33849671 0.99307821 2.67151309 1.99357052 4 3 C5.94646311 3.34748769 5.94646311 3.34748769 8.0625 3.5 C12 4 12 4 14 5.4375 C15 7 15 7 15 9 C15.78375 9.268125 16.5675 9.53625 17.375 9.8125 C20 11 20 11 22 14 C22.23828125 16.15625 22.23828125 16.15625 22.3125 18.5 C22.46411593 20.87827377 22.46411593 20.87827377 23 23 C25.35589996 24.88051585 25.35589996 24.88051585 28 26 C30.32402951 29.20937409 30.47570691 32.11506021 30 36 C28.20006226 38.69990662 26.916227 40.5418865 24 42 C20.32670036 42.13357453 17.50147041 42.1671568 14 41 C13.01 41.495 13.01 41.495 12 42 C8.90334962 42.31569929 5.79827954 42.32411736 2.6875 42.375 C1.40456055 42.43107422 1.40456055 42.43107422 0.09570312 42.48828125 C-4.3501705 42.55026864 -6.38198983 42.44917639 -10.07421875 39.765625 C-12.05204075 36.92526399 -12.54646547 35.75536296 -12.5 32.375 C-12.57591733 30.05920245 -12.57591733 30.05920245 -13 28 C-15.35589996 26.11948415 -15.35589996 26.11948415 -18 25 C-20.32402951 21.79062591 -20.47570691 18.88493979 -20 15 C-18.3332946 12.52867821 -16.58098052 10.5577413 -14.4375 8.5 C-12.8325205 6.94153949 -12.8325205 6.94153949 -11.5 4.4375 C-8.51143032 -0.41892573 -5.33664269 -0.46812655 0 0 Z M-9.4375 3.6875 C-11.25953249 6.38410809 -11.35430394 7.81126451 -11 11 C-11.8971875 11.1546875 -11.8971875 11.1546875 -12.8125 11.3125 C-15.50184346 12.15772223 -16.51282587 12.573558 -18 15 C-18.21243447 18.91369666 -17.86599669 22.01028949 -15.25 25 C-12.5790961 26.1870684 -10.89440083 26.37107703 -8 26 C-4.49222061 23.6614804 -3.79010223 21.73586552 -2 18 C0 16 0 16 3.8125 15.6875 C7.69570145 15.7713101 9.72368291 16.89979673 13 19 C16.69523952 19.71923208 16.69523952 19.71923208 20 20 C20.38620869 15.83279593 20.38620869 15.83279593 18.6875 12.1875 C16.89523775 10.80544154 16.89523775 10.80544154 14 10 C13.4225 9.13375 12.845 8.2675 12.25 7.375 C11.5075 6.59125 10.765 5.8075 10 5 C6.29945591 5.0636079 6.29945591 5.0636079 3 6 C2.67 5.01 2.34 4.02 2 3 C-1.96097885 1.01951057 -5.82546165 1.18685806 -9.4375 3.6875 Z M-3 20 C-3.165 20.86625 -3.33 21.7325 -3.5 22.625 C-3.665 23.40875 -3.83 24.1925 -4 25 C-6.5 26.1875 -6.5 26.1875 -9 27 C-10.59839645 30.19679291 -10.49671024 33.53012416 -10 37 C-8.55851025 39.18547684 -8.55851025 39.18547684 -6 40 C-2.5 40.25 -2.5 40.25 1 40 C3.52091942 40 6.04196844 40.01828015 8.5625 40.0625 C11.98335288 40.17162102 11.98335288 40.17162102 15 39 C15.66 39.33 16.32 39.66 17 40 C20.83614957 40.35519903 23.14629634 40.54724594 26.4375 38.4375 C28.61999672 35.03280512 28.63734462 32.96569988 28 29 C25.75708588 26.4879561 25.75708588 26.4879561 23 25 C22.34 25 21.68 25 21 25 C20.5359375 24.0409375 20.5359375 24.0409375 20.0625 23.0625 C19.1654837 21.06389179 19.1654837 21.06389179 18 20 C16.906875 19.87625 15.81375 19.7525 14.6875 19.625 C10.93222983 18.98851353 9.88991035 18.21559793 7 16 C2.41103293 15.17633924 0.17576601 16.73601826 -3 20 Z " fill="#09090B" transform="translate(27,11)"/>
<path d="M0 0 C0.763125 0.20625 1.52625 0.4125 2.3125 0.625 C2.3125 0.955 2.3125 1.285 2.3125 1.625 C1.36375 1.91375 0.415 2.2025 -0.5625 2.5 C-3.73961578 3.39325109 -3.73961578 3.39325109 -5.6875 5.625 C-5.8421875 6.8315625 -5.8421875 6.8315625 -6 8.0625 C-6.6875 10.625 -6.6875 10.625 -9.1875 12.375 C-10.425 12.99375 -10.425 12.99375 -11.6875 13.625 C-12.0175 13.955 -12.3475 14.285 -12.6875 14.625 C-12.48311574 18.6892508 -12.48311574 18.6892508 -11.6875 22.625 C-8.42468826 24.80020782 -7.4534092 24.90744319 -3.6875 24.625 C-2.6975 24.295 -1.7075 23.965 -0.6875 23.625 C-0.605 22.8825 -0.5225 22.14 -0.4375 21.375 C0.50617982 17.91484065 1.356801 16.67125315 4.3125 14.625 C9.97688841 13.99562351 12.53797862 14.48386752 17.3125 17.625 C20.50645026 18.33901232 20.50645026 18.33901232 23.3125 18.625 C23.9725 17.635 24.6325 16.645 25.3125 15.625 C25.3125 17.275 25.3125 18.925 25.3125 20.625 C16.54326923 20.625 16.54326923 20.625 13.3125 18 C11.22759774 16.28147617 11.22759774 16.28147617 7.75 16.6875 C4.30603986 17.32137331 4.30603986 17.32137331 2.4375 19.5 C1.19262574 21.71062447 1.19262574 21.71062447 0.3125 24.625 C-2.25 25.8125 -2.25 25.8125 -4.6875 26.625 C-5.0175 29.595 -5.3475 32.565 -5.6875 35.625 C-6.3475 35.295 -7.0075 34.965 -7.6875 34.625 C-7.790625 33.51125 -7.89375 32.3975 -8 31.25 C-8.2739727 27.48957553 -8.2739727 27.48957553 -11.125 25.9375 C-12.3934375 25.2878125 -12.3934375 25.2878125 -13.6875 24.625 C-16.01152951 21.41562591 -16.16320691 18.50993979 -15.6875 14.625 C-14.0207946 12.15367821 -12.26848052 10.1827413 -10.125 8.125 C-8.5200205 6.56653949 -8.5200205 6.56653949 -7.1875 4.0625 C-5.19235176 0.82038411 -3.89681456 -0.54374157 0 0 Z " fill="#1B1B1F" transform="translate(22.6875,11.375)"/>
<path d="M0 0 C1.485 0.99 1.485 0.99 3 2 C5.06045513 2.29025724 5.06045513 2.29025724 7.30859375 2.23046875 C8.55286133 2.22756836 8.55286133 2.22756836 9.82226562 2.22460938 C10.68529297 2.21236328 11.54832031 2.20011719 12.4375 2.1875 C13.72624023 2.1865332 13.72624023 2.1865332 15.04101562 2.18554688 C19.67208012 2.1931557 19.67208012 2.1931557 24.21508789 1.42700195 C24.80410889 1.28609131 25.39312988 1.14518066 26 1 C26.33 1.33 26.66 1.66 27 2 C31.23314767 2.23961213 34.36736489 2.32488647 38 0 C36.84826645 2.46800047 35.95216435 4.04783565 34 6 C30.306493 6.20146402 27.52059568 6.17353189 24 5 C23.01 5.495 23.01 5.495 22 6 C19.66706666 6.04320247 17.3329866 6.04022391 15 6 C12.49921887 6 9.99720034 6.05372141 7.5 6.1875 C3.81943962 5.99032712 2.47733654 5.67552346 0 3 C0 2.01 0 1.02 0 0 Z " fill="#606478" transform="translate(17,45)"/>
<path d="M0 0 C3.5625 0.25 3.5625 0.25 6.5625 2.25 C6.2325 2.91 5.9025 3.57 5.5625 4.25 C3.0875 3.26 3.0875 3.26 0.5625 2.25 C0.8925 3.24 1.2225 4.23 1.5625 5.25 C-0.41496603 5.98080266 -2.41822489 6.64421747 -4.4375 7.25 C-5.0975 6.92 -5.7575 6.59 -6.4375 6.25 C-5.55456679 1.83533396 -4.79203966 0.34851198 0 0 Z " fill="#BDBFD4" transform="translate(23.4375,12.75)"/>
<path d="M0 0 C0.763125 0.20625 1.52625 0.4125 2.3125 0.625 C2.3125 0.955 2.3125 1.285 2.3125 1.625 C1.36375 1.91375 0.415 2.2025 -0.5625 2.5 C-3.73961578 3.39325109 -3.73961578 3.39325109 -5.6875 5.625 C-5.77 6.429375 -5.8525 7.23375 -5.9375 8.0625 C-6.6875 10.625 -6.6875 10.625 -9.75 12.4375 C-10.719375 12.829375 -11.68875 13.22125 -12.6875 13.625 C-12.6875 10.625 -12.6875 10.625 -10.875 8.75 C-10.153125 8.04875 -9.43125 7.3475 -8.6875 6.625 C-8.171875 5.75875 -7.65625 4.8925 -7.125 4 C-5.16997182 0.76995344 -3.8525057 -0.53755894 0 0 Z " fill="#141417" transform="translate(22.6875,11.375)"/>
<path d="M0 0 C0.495 0.350625 0.99 0.70125 1.5 1.0625 C5.22697603 2.46011601 8.09802848 1.65032859 12 1 C12 1.99 12 2.98 12 4 C9 6 9 6 5.4375 5.75 C2 5 2 5 0 3 C0 2.01 0 1.02 0 0 Z " fill="#616579" transform="translate(10,31)"/>
<path d="M0 0 C0 0.66 0 1.32 0 2 C-0.99 2.66 -1.98 3.32 -3 4 C-3 4.99 -3 5.98 -3 7 C-4.65 7 -6.3 7 -8 7 C-7.62005832 4.24542282 -7.1926367 3.17979426 -5.125 1.25 C-3 0 -3 0 0 0 Z " fill="#C0C2D8" transform="translate(32,27)"/>
<path d="M0 0 C0.47050781 0.33773437 0.94101563 0.67546875 1.42578125 1.0234375 C2.35970703 1.69246094 2.35970703 1.69246094 3.3125 2.375 C4.23482422 3.03628906 4.23482422 3.03628906 5.17578125 3.7109375 C6.7652392 4.83410907 8.38062171 5.92041447 10 7 C7.8125 7.3125 7.8125 7.3125 5 7 C2.1875 4.625 2.1875 4.625 0 2 C0 1.34 0 0.68 0 0 Z " fill="#040405" transform="translate(15,46)"/>
<path d="M0 0 C2.31 1.65 4.62 3.3 7 5 C6.67 5.99 6.34 6.98 6 8 C0.125 4.375 0.125 4.375 -1 1 C-0.67 0.67 -0.34 0.34 0 0 Z " fill="#0E0E10" transform="translate(48,32)"/>
<path d="M0 0 C1.3125 2.0625 1.3125 2.0625 2 4 C1.1646875 3.505 1.1646875 3.505 0.3125 3 C-2.30284522 1.8690399 -4.1806646 1.84337026 -7 2 C-7.33 1.34 -7.66 0.68 -8 0 C-4.66411172 -1.11196276 -3.29427581 -1.09809194 0 0 Z " fill="#AFB1C4" transform="translate(38,17)"/>
<path d="M0 0 C3.63 0.33 7.26 0.66 11 1 C11 1.33 11 1.66 11 2 C4.6 3.23076923 4.6 3.23076923 1.5625 2.0625 C1.046875 1.711875 0.53125 1.36125 0 1 C0 0.67 0 0.34 0 0 Z " fill="#696D82" transform="translate(27,47)"/>
</svg>
