<?xml version="1.0" encoding="UTF-8"?>
<svg version="1.1" xmlns="http://www.w3.org/2000/svg" width="512" height="512">
<path d="M0 0 C1.57027541 1.48778124 3.13253901 2.98343964 4.69165039 4.48291016 C5.18294434 4.95229004 5.67423828 5.42166992 6.18041992 5.90527344 C12.90376462 12.3574244 19.00207258 19.1057457 24.69165039 26.48291016 C25.11414063 27.02898926 25.53663086 27.57506836 25.97192383 28.13769531 C37.29074303 42.86704258 46.91644654 58.61016187 54.69165039 75.48291016 C55.02261719 76.19463379 55.35358398 76.90635742 55.69458008 77.63964844 C64.72011238 97.29285299 70.4724094 118.11923788 73.69165039 139.48291016 C73.80879395 140.25924805 73.9259375 141.03558594 74.04663086 141.83544922 C78.09834895 170.33594467 75.37589363 199.53157356 73.44555664 228.09619141 C73.3548288 229.44614952 73.3548288 229.44614952 73.26226807 230.82337952 C72.95603334 235.22214768 72.6100394 239.61606565 72.20703125 244.00708008 C72.13262314 244.81827805 72.05821503 245.62947601 71.98155212 246.46525574 C71.69165039 248.48291016 71.69165039 248.48291016 70.69165039 250.48291016 C71.37227539 250.52416016 72.05290039 250.56541016 72.75415039 250.60791016 C78.7253643 252.38656962 82.52302739 256.64088098 85.62915039 261.92041016 C90.30304489 272.50693814 87.60772537 285.07964379 85.09301758 295.92895508 C84.8165892 297.17983414 84.54016083 298.4307132 84.25535583 299.71949768 C83.50713687 303.10282986 82.73944285 306.48145082 81.96743298 309.85942245 C81.15633815 313.42275751 80.36268897 316.98998072 79.56671143 320.55671692 C78.22896662 326.53937504 76.879224 332.51921952 75.52124023 338.49731445 C73.95844072 345.37735837 72.41103551 352.26071447 70.87266231 359.14625853 C69.22376838 366.52626367 67.56525799 373.90408092 65.90309238 381.28110719 C65.42932872 383.3862011 64.95714357 385.49164406 64.48525238 387.59715843 C63.60048685 391.54155717 62.70477325 395.4833943 61.80786133 399.42504883 C61.55107101 400.57393585 61.2942807 401.72282288 61.02970886 402.90652466 C55.54809141 426.82392642 55.54809141 426.82392642 45.56665039 433.29541016 C37.74455091 437.9978007 27.29419076 437.56159798 18.56665039 435.48291016 C17.92469727 435.29728516 17.28274414 435.11166016 16.62133789 434.92041016 C14.15895699 434.36213756 12.20899471 434.18019154 9.69165039 434.48291016 C7.82736116 436.07213142 7.82736116 436.07213142 6.31665039 438.23291016 C2.99133668 442.6557412 -0.92546712 445.82634331 -6.42163086 446.89306641 C-8.83710175 447.09854917 -11.19676289 447.13878285 -13.62084961 447.10791016 C-14.51441162 447.10170654 -15.40797363 447.09550293 -16.32861328 447.08911133 C-24.10789197 446.85293208 -31.54146687 445.50575665 -39.12084961 443.79541016 C-40.21115479 443.55193848 -41.30145996 443.3084668 -42.42480469 443.05761719 C-52.07047192 440.69007827 -59.67133108 436.89453594 -65.30834961 428.48291016 C-71.39978286 417.65624956 -67.68747566 405.12832001 -65.08300781 393.7722168 C-64.73544637 392.21708078 -64.3889126 390.6617148 -64.0433197 389.10614014 C-63.1072986 384.90687516 -62.15685516 380.71099664 -61.20356011 376.51562428 C-60.20209018 372.09724675 -59.21367398 367.67594947 -58.22367859 363.25498962 C-56.55757129 355.82326461 -54.88289235 348.39351577 -53.20214844 340.96508789 C-50.84672616 330.55465638 -48.50749512 320.14063624 -46.17120612 309.72589695 C-44.53828835 302.44960379 -42.90138394 295.1742066 -41.26378989 287.89896464 C-40.87067025 286.1523768 -40.47766155 284.40576398 -40.08476663 282.65912557 C-37.9584234 273.2074676 -35.82299989 263.75814051 -33.64604181 254.3179943 C-32.70445159 250.23051799 -31.78973557 246.13798363 -30.88949585 242.04122925 C-30.48102335 240.25516997 -30.07152383 238.46934503 -29.66064453 236.68383789 C-29.50438504 235.93726205 -29.34812555 235.19068621 -29.18713093 234.42148685 C-27.41258047 226.95228873 -22.7178845 220.70382338 -16.30834961 216.48291016 C-9.52227767 212.44014389 -0.95771893 212.1603939 6.68774414 213.95019531 C8.36564124 214.42748445 10.0302576 214.95101017 11.69165039 215.48291016 C15.41014656 156.38538176 9.79173719 102.45505334 -30.48803711 55.96728516 C-32.72860154 53.43986646 -35.00493849 50.95312001 -37.30834961 48.48291016 C-38.33702148 47.37302734 -38.33702148 47.37302734 -39.38647461 46.24072266 C-65.29724207 19.27433134 -101.02392577 3.29808418 -137.30834961 -3.51708984 C-138.58967773 -3.76330078 -139.87100586 -4.00951172 -141.19116211 -4.26318359 C-187.36200284 -11.49295887 -236.34044894 0.6237963 -274.34350586 27.52587891 C-280.26975178 31.87045299 -285.81521238 36.60983762 -291.30834961 41.48291016 C-292.59810175 42.54773335 -293.88940302 43.6106879 -295.18334961 44.67041016 C-298.96276177 47.93234779 -302.10022029 51.67082127 -305.30834961 55.48291016 C-306.04827148 56.31177734 -306.78819336 57.14064453 -307.55053711 57.99462891 C-345.06204564 100.95908836 -351.43406404 153.18313448 -347.76538086 207.91650391 C-347.61461009 210.1054149 -347.46286762 212.29426049 -347.30834961 214.48291016 C-346.38634766 214.3235498 -345.4643457 214.16418945 -344.5144043 214 C-335.75350068 212.58699407 -327.30750267 212.26912509 -319.49194336 216.88916016 C-307.06112975 225.96209746 -305.71186949 241.41863262 -302.58129883 255.59521484 C-302.22972636 257.16881654 -301.8776925 258.74231522 -301.52523804 260.3157196 C-300.57855724 264.54786053 -299.63826268 268.78139658 -298.69918966 273.01523113 C-297.7109535 277.46544249 -296.71672995 281.91431597 -295.72317505 286.36334229 C-293.8444535 294.78025777 -291.97104512 303.19834638 -290.09958375 311.61687875 C-287.97528575 321.17153173 -285.84500326 330.72484716 -283.71423316 340.27805853 C-280.07066351 356.61443595 -276.43175786 372.95184698 -272.79736328 389.29026794 C-272.64441622 389.97778153 -272.49146916 390.66529511 -272.33388734 391.37364244 C-271.90728555 393.29207253 -271.48124641 395.21062771 -271.055233 397.12918854 C-270.59394985 399.20048279 -270.13006637 401.27120224 -269.6619606 403.34096527 C-267.44800996 413.14677877 -267.16825713 421.54494519 -272.30834961 430.48291016 C-280.2659504 441.50112664 -295.77890444 443.71588118 -308.35522461 446.03027344 C-317.67404675 447.45860481 -329.45222627 449.09257255 -337.80834961 443.85791016 C-340.22650409 441.81515466 -341.98079717 439.61239994 -343.80834961 437.04541016 C-345.96227591 434.28086245 -345.96227591 434.28086245 -348.43334961 434.29541016 C-351.57154456 434.62574647 -354.56239445 435.30989871 -357.63256836 436.02197266 C-365.52897174 437.38222901 -374.73523705 437.96629335 -381.74194336 433.60791016 C-382.25885742 433.23666016 -382.77577148 432.86541016 -383.30834961 432.48291016 C-384.19522461 431.90541016 -385.08209961 431.32791016 -385.99584961 430.73291016 C-391.33490674 425.53815187 -393.99459815 419.5561691 -395.49975586 412.36572266 C-395.68265167 411.55621658 -395.86554749 410.74671051 -396.0539856 409.91267395 C-396.67464974 407.1475346 -397.27291027 404.37804623 -397.87084961 401.60791016 C-398.31663255 399.59013938 -398.76370839 397.57265392 -399.21191406 395.55541992 C-399.98032487 392.09150576 -400.74625975 388.62711253 -401.50621033 385.16133118 C-403.65551839 375.36818252 -405.87087811 365.59099764 -408.10322571 355.81646729 C-409.71728287 348.74783188 -411.31837107 341.67627633 -412.91647625 334.60401917 C-414.06644992 329.51668617 -415.22128345 324.43056938 -416.38772583 319.34698486 C-417.50553512 314.47265164 -418.6071224 309.59490311 -419.69762802 304.71439171 C-420.1058712 302.89982258 -420.51960813 301.08647884 -420.9393959 299.27454567 C-427.52318029 270.81125899 -427.52318029 270.81125899 -421.00756836 259.64697266 C-418.03875437 255.86600035 -414.49348593 252.84978501 -410.30834961 250.48291016 C-409.31834961 250.48291016 -408.32834961 250.48291016 -407.30834961 250.48291016 C-407.3939917 249.54721191 -407.47963379 248.61151367 -407.56787109 247.64746094 C-407.89281686 244.08029798 -408.2148735 240.51289607 -408.53515625 236.9453125 C-408.67272261 235.41917078 -408.81134702 233.89312396 -408.95117188 232.3671875 C-411.98704156 199.20277714 -415.14265154 163.27172238 -408.30834961 130.48291016 C-408.10435547 129.48533691 -407.90036133 128.48776367 -407.69018555 127.45996094 C-401.09431596 96.07917528 -389.12130486 65.63314165 -370.30834961 39.48291016 C-369.55166992 38.41685547 -368.79499023 37.35080078 -368.01538086 36.25244141 C-365.83992427 33.27610876 -363.6001914 30.37039414 -361.30834961 27.48291016 C-360.16946289 26.03658203 -360.16946289 26.03658203 -359.00756836 24.56103516 C-346.99457573 9.8390473 -333.35532235 -4.18752577 -317.9309082 -15.33886719 C-316.29435223 -16.52725405 -314.68573673 -17.74726453 -313.07788086 -18.97412109 C-234.00126086 -78.40735524 -119.13438681 -80.54985234 0 0 Z M-299.30834961 -11.51708984 C-299.96544922 -11.05625 -300.62254883 -10.59541016 -301.29956055 -10.12060547 C-310.29695311 -3.74195234 -318.68003743 3.13165129 -326.58959961 10.81542969 C-327.79172364 11.98169491 -329.00064258 13.1409786 -330.21459961 14.29492188 C-340.3634355 23.95068688 -349.18920094 34.07050733 -357.30834961 45.48291016 C-357.7537207 46.09956543 -358.1990918 46.7162207 -358.65795898 47.3515625 C-374.21211037 69.02971978 -385.12735048 93.93800699 -391.74584961 119.73291016 C-391.96861572 120.59247314 -392.19138184 121.45203613 -392.42089844 122.33764648 C-396.70524948 140.33192088 -397.82206682 158.42804821 -397.68334961 176.85791016 C-397.68035858 177.89998627 -397.67736755 178.94206238 -397.67428589 180.01571655 C-397.61287634 198.43035807 -396.66484367 216.7232826 -395.06225586 235.06494141 C-395.00176559 235.76364853 -394.94127533 236.46235565 -394.87895203 237.18223572 C-394.58287208 240.36372133 -394.21332413 243.41282677 -393.30834961 246.48291016 C-391.65834961 246.15291016 -390.00834961 245.82291016 -388.30834961 245.48291016 C-388.10081055 244.63728516 -387.89327148 243.79166016 -387.67944336 242.92041016 C-385.39239272 234.49947055 -382.88587362 227.77019422 -375.10131836 223.18212891 C-370.64599839 221.09488361 -366.04274422 219.8044038 -361.30834961 218.48291016 C-361.38053711 217.39365234 -361.45272461 216.30439453 -361.52709961 215.18212891 C-362.26223563 202.7095817 -362.47293753 190.23081024 -362.54052734 177.73916626 C-362.55221514 175.89063381 -362.56912309 174.04212541 -362.59179688 172.19369507 C-362.79589933 154.50849844 -361.21664499 137.15233043 -356.24584961 120.10791016 C-355.94912354 119.07537109 -355.65239746 118.04283203 -355.34667969 116.97900391 C-347.12039996 89.50368976 -332.86259139 64.51328539 -313.24584961 43.59619141 C-311.23563955 41.45535037 -311.23563955 41.45535037 -309.27709961 38.91259766 C-306.34063375 35.2886259 -302.86342134 32.48341405 -299.30834961 29.48291016 C-298.43049805 28.71720703 -297.55264648 27.95150391 -296.64819336 27.16259766 C-256.6068514 -7.22014282 -204.41537603 -22.8021603 -152.0456543 -19.29882812 C-137.80606106 -18.06784536 -123.99432228 -15.63646505 -110.30834961 -11.51708984 C-109.09767822 -11.15405762 -109.09767822 -11.15405762 -107.86254883 -10.78369141 C-90.11033247 -5.31768304 -72.45260498 2.64674485 -57.30834961 13.48291016 C-56.41672119 14.1183374 -56.41672119 14.1183374 -55.50708008 14.76660156 C-46.19727375 21.4459236 -37.55468312 28.5267702 -29.30834961 36.48291016 C-28.53233398 37.20736328 -27.75631836 37.93181641 -26.95678711 38.67822266 C6.12514095 70.35738345 25.84879977 117.83681717 26.87345886 163.35987854 C27.08970264 176.87336647 26.84422298 190.38500719 25.91430664 203.86962891 C25.61386596 208.74520131 25.59486408 213.60057865 25.69165039 218.48291016 C26.24852539 218.64146484 26.80540039 218.80001953 27.37915039 218.96337891 C35.24346971 221.3678414 43.57606482 224.89617234 47.69165039 232.48291016 C49.24855825 236.76057832 50.5235306 241.08451498 51.69165039 245.48291016 C53.67165039 245.81291016 55.65165039 246.14291016 57.69165039 246.48291016 C66.16274307 177.3623986 64.78581373 106.30052986 22.69165039 47.48291016 C21.66297852 46.04238281 21.66297852 46.04238281 20.61352539 44.57275391 C6.97560733 25.95552403 -8.70691682 9.18589526 -27.30834961 -4.51708984 C-27.86844727 -4.93796875 -28.42854492 -5.35884766 -29.00561523 -5.79248047 C-104.96014249 -62.82408052 -209.16582121 -65.86820064 -299.30834961 -11.51708984 Z M-352.99584961 230.10791016 C-354.17985352 230.34380859 -355.36385742 230.57970703 -356.58374023 230.82275391 C-363.33286056 232.29735162 -368.91558349 233.85684378 -373.30834961 239.48291016 C-375.62056845 246.41956666 -373.94571828 253.2368921 -372.34326172 260.15014648 C-372.13298717 261.08855723 -371.92271263 262.02696798 -371.70606613 262.99381542 C-371.00732895 266.1027357 -370.29650692 269.20876199 -369.58569336 272.31494141 C-369.08734946 274.52188029 -368.58979221 276.72899694 -368.0929718 278.9362793 C-366.76211847 284.83930183 -365.42095775 290.73993554 -364.07740784 296.6400795 C-362.69259017 302.72740605 -361.31557792 308.81649676 -359.93823242 314.90551758 C-359.3866509 317.34364855 -358.83504569 319.78177416 -358.28341675 322.21989441 C-358.0110104 323.42389578 -357.73860405 324.62789715 -357.45794296 325.86838341 C-356.63243418 329.51475284 -355.80562405 333.16082518 -354.97854614 336.80683899 C-351.95904259 350.12550655 -348.97382886 363.45074766 -346.05626106 376.79212379 C-345.52584439 379.21633769 -344.99376991 381.64018109 -344.46104431 384.06388855 C-344.29255383 384.83062802 -344.12406336 385.5973675 -343.95046711 386.3873415 C-343.62169897 387.88342682 -343.29289772 389.37950487 -342.96406078 390.87557507 C-342.03680192 395.09926858 -341.12003253 399.3250738 -340.21052074 403.55262184 C-339.52899422 406.70472267 -338.83144279 409.8532814 -338.13647461 413.00244141 C-337.90519363 414.09733887 -337.67391266 415.19223633 -337.43562317 416.3203125 C-335.94545209 422.98690797 -334.40999879 427.57331711 -329.33300781 432.3359375 C-322.16605495 436.39602969 -311.0812961 432.50667293 -303.62084961 430.85791016 C-301.84484375 430.5040625 -301.84484375 430.5040625 -300.03295898 430.14306641 C-293.28383866 428.66846869 -287.70111572 427.10897654 -283.30834961 421.48291016 C-280.78902459 413.92493509 -282.97529294 406.3934322 -284.70410156 398.87768555 C-284.95953232 397.73602936 -285.21496307 396.59437317 -285.47813416 395.41812134 C-286.17930114 392.29206883 -286.88802252 389.16784654 -287.60011697 386.04426885 C-288.35659472 382.71739093 -289.1031665 379.38829035 -289.85087585 376.05943298 C-291.27944449 369.7062262 -292.71668275 363.35501385 -294.15710181 357.00448459 C-295.90824473 349.28215559 -297.64848815 341.55737904 -299.38842773 333.83251953 C-301.24148829 325.60582208 -303.09665972 317.37962844 -304.96292114 309.15591431 C-305.57258983 306.46825109 -306.18203983 303.78053841 -306.79125977 301.09277344 C-306.94014027 300.43596313 -307.08902077 299.77915282 -307.24241281 299.10243917 C-309.38486512 289.64332686 -311.47727803 280.17401763 -313.5402832 270.69726562 C-314.28471898 267.29947747 -315.03005434 263.90188795 -315.77568626 260.50436211 C-316.23731964 258.38746996 -316.69440489 256.26958011 -317.14660072 254.15065193 C-317.76252115 251.26462361 -318.39354865 248.38228284 -319.02783203 245.50024414 C-319.20111967 244.66617727 -319.37440731 243.8321104 -319.55294609 242.97276878 C-320.84844474 237.18653407 -322.86187279 232.77789954 -327.28369141 228.62988281 C-334.45064427 224.56979062 -345.53540312 228.45914738 -352.99584961 230.10791016 Z M-13.30834961 232.48291016 C-16.13893976 239.02633567 -17.64618811 245.74265131 -19.16821289 252.68994141 C-19.57146538 254.49726242 -19.57146538 254.49726242 -19.98286438 256.34109497 C-20.71678941 259.63569243 -21.44556171 262.93135011 -22.17209101 266.22758102 C-22.94435135 269.72517961 -23.72338751 273.22126869 -24.50167847 276.7175293 C-25.98293968 283.37637706 -27.45837714 290.03650074 -28.93162525 296.69712543 C-30.89578601 305.57593495 -32.86800657 314.45295255 -34.84022474 323.32997513 C-35.32246069 325.50057287 -35.80465151 327.67118064 -36.2868042 329.84179688 C-36.44475015 330.55285646 -36.60269611 331.26391605 -36.7654283 331.9965229 C-37.86916917 336.96689265 -38.96994038 341.93791469 -40.06964111 346.90917969 C-42.75687691 359.05189332 -45.45548202 371.19127707 -48.24487305 383.31103516 C-48.67733503 385.19783122 -49.10978003 387.08463118 -49.54220581 388.97143555 C-50.30702192 392.30630784 -51.08272915 395.63835639 -51.86575317 398.96899414 C-52.19840809 400.41494946 -52.53069985 401.86098841 -52.86254883 403.30712891 C-53.14492401 404.51457764 -53.42729919 405.72202637 -53.7182312 406.96606445 C-54.53952597 411.8606194 -55.13160631 416.57642097 -53.12084961 421.23291016 C-49.46020194 425.77716243 -45.94015456 427.93034055 -40.26538086 429.18603516 C-39.10844727 429.44384766 -37.95151367 429.70166016 -36.75952148 429.96728516 C-34.95837891 430.34626953 -34.95837891 430.34626953 -33.12084961 430.73291016 C-31.34871094 431.13509766 -31.34871094 431.13509766 -29.54077148 431.54541016 C-17.41423733 434.48287201 -17.41423733 434.48287201 -5.87084961 431.48291016 C0.01584121 424.59117456 1.08760557 414.97046717 2.98217773 406.33789062 C3.29912684 404.9141851 3.61659001 403.49059394 3.93452454 402.06710815 C4.79313534 398.21612303 5.64461721 394.36359308 6.49483442 390.51074743 C7.39177442 386.45219441 8.29544276 382.39514 9.19839478 378.33792114 C10.91108219 370.63765065 12.61794555 362.93610173 14.32262385 355.23405468 C16.43303141 345.70005728 18.55046358 336.16762273 20.66821289 326.63525391 C21.4166859 323.2661345 22.16511631 319.89700564 22.91348267 316.52786255 C23.09552675 315.70831058 23.27757083 314.8887586 23.4651314 314.04437172 C24.53145201 309.24301651 25.59652182 304.44138613 26.66026509 299.63945925 C27.16377584 297.36663682 27.66759953 295.09388391 28.17145729 292.82113838 C28.80883994 289.9458688 29.4448128 287.07029258 30.07983971 284.19450188 C31.44155446 278.03766661 32.82138678 271.88665868 34.2744751 265.75054932 C34.512129 264.73941637 34.74978291 263.72828342 34.99463844 262.68651009 C35.42236248 260.87678365 35.85714546 259.06870033 36.30130577 257.26293755 C37.68036683 251.41710006 38.9653659 245.43256713 36.50415039 239.73291016 C32.84350272 235.18865788 29.32345534 233.03547976 23.64868164 231.77978516 C21.91328125 231.39306641 21.91328125 231.39306641 20.14282227 230.99853516 C18.94206055 230.74587891 17.74129883 230.49322266 16.50415039 230.23291016 C14.73201172 229.83072266 14.73201172 229.83072266 12.92407227 229.42041016 C-1.41413614 225.84106811 -1.41413614 225.84106811 -13.30834961 232.48291016 Z M49.69165039 259.48291016 C48.23481572 262.91488333 47.1916449 266.23374685 46.38383484 269.8714447 C46.02453384 271.47482445 46.02453384 271.47482445 45.65797424 273.1105957 C45.4018486 274.27365234 45.14572296 275.43670898 44.88183594 276.63500977 C44.6067218 277.86836563 44.33160767 279.1017215 44.04815674 280.37245178 C43.29420525 283.75286319 42.54544572 287.13440592 41.79757667 290.5161674 C41.00891671 294.07800002 40.21536237 297.63874184 39.4223175 301.19960022 C37.91628075 307.96526832 36.41445991 314.73186478 34.91422635 321.49882179 C32.89481719 330.60668859 30.86963301 339.71327046 28.84449732 348.81986535 C28.35235228 351.03294664 27.86022767 353.24603248 27.36811829 355.4591217 C27.20793286 356.1794817 27.04774743 356.89984169 26.88270789 357.64203078 C25.94627028 361.85385219 25.01084959 366.06589773 24.07643753 370.27816898 C23.63356879 372.27451784 23.19050709 374.27082378 22.74737263 376.26711369 C22.18425466 378.80392228 21.62141441 381.34079255 21.0588789 383.87773037 C19.77835976 389.64166117 18.48562473 395.40222706 17.16030884 401.15603638 C16.92435658 402.18197938 16.68840433 403.20792238 16.44530201 404.26495457 C16.00819144 406.15951048 15.56825581 408.0534178 15.12491131 409.94652462 C14.9344262 410.77153249 14.7439411 411.59654036 14.54768372 412.44654846 C14.38124768 413.15896478 14.21481165 413.87138109 14.0433321 414.60538578 C13.59959567 416.65600013 13.59959567 416.65600013 13.69165039 419.48291016 C16.23001193 420.18533087 18.77109102 420.87001218 21.31665039 421.54541016 C22.02950195 421.74457031 22.74235352 421.94373047 23.47680664 422.14892578 C29.29632548 423.67054309 33.38021284 423.66129008 38.87915039 420.85791016 C44.97088784 415.71377631 45.832807 407.26266082 47.46313477 399.80297852 C47.72210037 398.64426239 47.98106598 397.48554626 48.24787903 396.29171753 C48.9532715 393.12914583 49.65257613 389.96530365 50.349123 386.80077434 C51.08353762 383.47104155 51.82571929 380.1430405 52.5670166 376.81483459 C53.97136488 370.50413499 55.36863459 364.1918899 56.763412 357.87906891 C58.33963684 350.74680859 59.92427094 343.6164252 61.50939846 336.48613918 C65.96942418 316.42711294 65.96942418 316.42711294 70.39208984 296.35983276 C71.16118386 292.85877477 71.94720787 289.36348002 72.77050781 285.87478638 C73.19843628 284.02287186 73.19843628 284.02287186 73.63500977 282.13354492 C73.9875885 280.66232933 73.9875885 280.66232933 74.34729004 279.16139221 C74.91034918 274.78184094 74.07994081 271.36538839 72.31665039 267.35791016 C66.57971754 261.07460275 57.84622877 260.01763661 49.69165039 259.48291016 Z M-405.87084961 264.23291016 C-408.93185701 267.05845545 -410.67595808 269.37756332 -411.30834961 273.48291016 C-410.50696078 285.45894673 -406.94782227 297.48752347 -404.29272461 309.15087891 C-403.79391904 311.35679353 -403.295493 313.562794 -402.79742432 315.76887512 C-401.48853045 321.56127904 -400.17422229 327.35244144 -398.85882568 333.14337158 C-397.54030174 338.9530203 -396.22734857 344.76392763 -394.91381836 350.57470703 C-392.69148903 360.40471038 -390.45656763 370.23179159 -388.21657562 380.05778313 C-387.06170091 385.13395146 -385.92103383 390.21258145 -384.81359482 395.29931545 C-384.39804605 397.207676 -383.97727054 399.1148962 -383.55621338 401.02204895 C-383.09204319 403.12924115 -382.6370855 405.23850124 -382.19476318 407.35038757 C-380.74550985 413.86457442 -379.10291596 418.58022668 -373.37084961 422.48291016 C-366.18508959 425.14257458 -357.18971324 421.91467024 -350.30834961 419.48291016 C-351.52740237 411.75740985 -352.96422281 404.12696596 -354.70336914 396.50244141 C-354.93465012 395.47586929 -355.16593109 394.44929718 -355.40422058 393.39161682 C-356.16338892 390.02549542 -356.92727097 386.66046263 -357.69116211 383.29541016 C-358.22995624 380.91022659 -358.76843265 378.52497123 -359.30661011 376.13964844 C-360.72428741 369.85974824 -362.14587456 363.58073982 -363.56842041 357.30194092 C-365.81904663 347.36446767 -368.06315576 337.42551885 -370.30861664 327.48687744 C-371.12341002 323.88115238 -371.93866847 320.27553268 -372.75396729 316.66992188 C-376.9851438 297.95115602 -381.1698369 279.22237399 -385.30834961 260.48291016 C-392.59895927 258.82857049 -399.24697288 260.97907597 -405.87084961 264.23291016 Z " fill="#8F8F8F" transform="translate(424.308349609375,65.51708984375)"/>
</svg>
