<?xml version="1.0" encoding="UTF-8"?>
<svg version="1.1" xmlns="http://www.w3.org/2000/svg" width="512" height="512">
<path d="M0 0 C1.33538234 0.00362263 1.33538234 0.00362263 2.6977421 0.00731844 C3.63992929 0.00208176 4.58211647 -0.00315492 5.55285478 -0.00855029 C8.72966157 -0.02362678 11.9063084 -0.02425711 15.0831486 -0.02492338 C17.35278945 -0.03253972 19.62242771 -0.0409663 21.89206278 -0.05014616 C28.07177284 -0.07214967 34.2514334 -0.08089789 40.43117821 -0.08597261 C44.28830491 -0.08960921 48.14541851 -0.09584561 52.00254023 -0.102974 C62.67752262 -0.12243702 73.3524904 -0.13894543 84.02749026 -0.14185053 C85.05265282 -0.14213189 85.05265282 -0.14213189 86.09852574 -0.14241892 C87.48408735 -0.14278518 88.86964896 -0.14314888 90.25521056 -0.14351004 C90.94302484 -0.14369285 91.63083912 -0.14387566 92.33949625 -0.14406401 C93.02814802 -0.14424456 93.71679979 -0.14442511 94.42631979 -0.14461113 C105.58803488 -0.14815369 116.74955714 -0.17517981 127.91120534 -0.2125619 C139.36511533 -0.25061648 150.81888805 -0.26956642 162.2728703 -0.27031004 C168.706165 -0.27110489 175.13921108 -0.27993864 181.57244837 -0.30830771 C187.62174729 -0.33438581 193.67058963 -0.33675085 199.71991885 -0.32065207 C201.94357954 -0.3188294 204.16726588 -0.32560137 206.39087069 -0.34147078 C209.42022272 -0.36177706 212.44795399 -0.35147028 215.47728312 -0.33325773 C216.8059733 -0.35305769 216.8059733 -0.35305769 218.1615057 -0.37325764 C224.09153669 -0.29148616 224.09153669 -0.29148616 227.27090704 2.63269991 C229.08228526 5.95631166 229.06763537 7.94732257 228.85585368 11.71677583 C228.81286943 13.06567273 228.77512356 14.41474328 228.74167216 15.76391023 C228.7208791 16.49150608 228.70008605 17.21910192 228.6786629 17.96874613 C228.13882781 44.94795232 235.32998579 70.9025941 241.51596874 96.9549036 C243.22543817 104.16169259 244.89277947 111.37804157 246.55659103 118.59548551 C247.41246539 122.30799834 248.26978689 126.02017647 249.1275059 129.73226351 C249.2988126 130.47366384 249.4701193 131.21506418 249.64661711 131.97893119 C250.86919754 137.26622469 252.09927115 142.55174162 253.33310282 147.83642 C258.27752446 169.0173125 263.12635702 190.21814944 267.90199625 211.4377231 C268.06506825 212.16211037 268.22814024 212.88649764 268.39615381 213.63283604 C270.00001633 220.75759512 271.60237359 227.88269174 273.20337635 235.00809395 C276.03980621 247.63136536 278.88860856 260.25183315 281.74008524 272.87171358 C282.52674163 276.35404229 283.31263664 279.83654212 284.09840739 283.31907076 C284.56781924 285.39777216 285.03725919 287.47646723 285.50673258 289.55515474 C285.82347422 290.9598582 285.82347422 290.9598582 286.14661467 292.39293951 C286.34016382 293.24927953 286.53371296 294.10561954 286.73312724 294.98790926 C286.89972251 295.72589785 287.06631779 296.46388645 287.23796141 297.22423834 C287.56310271 298.62789643 287.90669529 300.02737645 288.26621306 301.42262548 C288.76540289 303.49256218 288.86931152 305.36777147 288.90736735 307.49582857 C288.93146174 308.72763353 288.93146174 308.72763353 288.95604289 309.98432344 C289.00078348 313.72219631 289.0415309 317.45989888 289.06459391 321.19797701 C289.08116635 323.16684714 289.10847331 325.13565679 289.14662516 327.10422701 C289.2014858 329.95268678 289.22327854 332.79974321 289.23793375 335.6486606 C289.26060313 336.5238434 289.2832725 337.3990262 289.30662882 338.30072969 C289.2918262 342.5986699 289.08090891 345.38526956 286.2953068 348.77536958 C282.14228863 352.80816984 282.14228863 352.80816984 280.15199625 354.4689731 C276.60029267 357.49698504 273.14406933 360.61657884 269.71449625 363.7814731 C265.8051193 367.38207164 261.85582008 370.92565912 257.83949625 374.4064731 C255.09626207 376.82697385 252.40565057 379.30347952 249.71449625 381.7814731 C245.8046803 385.38160066 241.85583158 388.92564915 237.83949625 392.4064731 C235.09626207 394.82697385 232.40565057 397.30347952 229.71449625 399.7814731 C225.80799647 403.37854716 221.86556996 406.92290942 217.84730875 410.39475435 C216.13133834 411.91272818 214.44561429 413.45099875 212.76918375 415.01194185 C212.24453532 415.49920748 211.71988688 415.9864731 211.17934 416.48850435 C210.14990775 417.44711571 209.12364536 418.40914718 208.101215 419.3752231 C199.26458017 427.59589948 199.26458017 427.59589948 191.91192019 427.43139833 C188.26858704 427.18282201 184.74871819 426.51309214 181.17470133 425.78440279 C180.36226466 425.62501726 179.54982798 425.46563173 178.71277201 425.30141634 C176.05150775 424.77683069 173.39272344 424.2407882 170.7340275 423.7033481 C168.8741911 423.33152466 167.01430152 422.95996717 165.15436137 422.58866304 C161.26744367 421.81056617 157.38184588 421.0262258 153.49696696 420.23801607 C148.5234056 419.22989616 143.54604012 418.24213603 138.56737578 417.25957292 C134.72977075 416.499046 130.89489276 415.72542287 127.06066287 414.94807619 C125.22640157 414.57830345 123.39120463 414.21314038 121.55508196 413.85272402 C118.9891099 413.34748912 116.42747608 412.82413086 113.86610758 412.29612154 C113.11119029 412.15154009 112.35627299 412.00695863 111.57847941 411.85799593 C107.02389539 410.89441002 104.01404624 409.59478072 100.71449625 406.2814731 C99.51121683 402.67163481 99.55120435 399.35935059 99.5374943 395.6005649 C99.52763751 394.42930559 99.52763751 394.42930559 99.51758158 393.23438448 C99.49786792 390.64981928 99.48619062 388.06531211 99.476215 385.48069185 C99.47213948 384.59729442 99.46806395 383.713897 99.46386492 382.80372995 C99.44301293 378.12842601 99.42870716 373.45315136 99.41933024 368.77781099 C99.40826456 363.95236288 99.37386047 359.12737573 99.33415854 354.30209059 C99.30799824 350.58827292 99.29963896 346.87456524 99.29604876 343.16066355 C99.29118168 341.38208648 99.27956417 339.60351436 99.26101077 337.82502741 C99.23663015 335.33316934 99.23758194 332.84250603 99.24452555 330.3505649 C99.23171549 329.61943987 99.21890543 328.88831484 99.20570719 328.1350345 C99.2569845 323.0731943 100.46027901 320.13892906 103.71449625 316.2814731 C107.66213896 314.9655922 111.42538982 315.15847037 115.538715 315.18381685 C116.83081637 315.18593927 116.83081637 315.18593927 118.14902079 315.18810457 C120.90004795 315.1937017 123.6509937 315.20625364 126.40199625 315.2189731 C128.26722945 315.22398847 130.13246393 315.22855131 131.99769938 315.23264498 C136.56999637 315.24367018 141.14223251 315.26093283 145.71449625 315.2814731 C130.75325372 280.03591489 130.75325372 280.03591489 115.65233195 244.85013765 C114.85300489 243.00023644 114.05582664 241.14940723 113.25868571 239.29856294 C112.56005412 237.68715425 112.56005412 237.68715425 111.84730875 236.04319185 C111.25780436 234.6813376 111.25780436 234.6813376 110.65639079 233.29197115 C109.87615459 231.32968545 109.87615459 231.32968545 108.71449625 230.2814731 C108.4671171 230.85869112 108.21973795 231.43590914 107.96486247 232.03061861 C106.7459904 234.87465344 105.52711833 237.71868827 104.30824625 240.5627231 C103.84116251 241.65258516 103.37407877 242.74244722 102.89284098 243.8653354 C100.79042399 248.77097505 98.688007 253.6766147 96.58559 258.58225435 C96.31393519 259.21611559 96.04228037 259.84997682 95.76239359 260.50304598 C94.36101115 263.77293835 92.9596287 267.04283073 91.55824625 270.3127231 C91.27379649 270.97643923 90.98934672 271.64015535 90.69627726 272.32398409 C90.41055857 272.99066103 90.12483988 273.65733797 89.83046305 274.34421724 C89.54488032 275.01057695 89.25929759 275.67693666 88.96506083 276.36348909 C88.67999171 277.02865038 88.39492259 277.69381166 88.101215 278.37912935 C87.81699183 279.04231676 87.53276865 279.70550417 87.23993266 280.38878816 C85.87224162 283.58006726 84.50455058 286.77134635 83.13685954 289.96262544 C82.63267497 291.13905611 82.1284904 292.31548677 81.6090275 293.52756685 C78.64418375 300.4455356 75.67934 307.36350435 72.71449625 314.2814731 C72.22167155 315.43139742 71.72884684 316.58132173 71.22108805 317.76609224 C70.4782255 319.49943819 70.4782255 319.49943819 69.72035563 321.26780123 C69.22450968 322.4247751 68.72866374 323.58174898 68.21779215 324.77378267 C66.71669352 328.27634615 65.21559489 331.77890962 63.71449625 335.2814731 C63.21949625 336.4364731 62.72449625 337.5914731 62.21449625 338.7814731 C60.71449625 342.2814731 59.21449625 345.7814731 57.71449625 349.2814731 C57.21950129 350.43646303 56.72450633 351.59145296 56.21451151 352.78144258 C55.21446556 355.11487975 54.2144147 357.4483148 53.21435893 359.78174776 C50.71502172 365.61347525 48.21576974 371.44523923 45.71669352 377.27707857 C41.208987 387.79602401 36.70072556 398.31472944 32.18913615 408.83201021 C30.67876185 412.35313344 29.1687717 415.87442122 27.65883219 419.39573091 C25.67002088 424.03371299 23.67957691 428.67098974 21.68812907 433.30784029 C16.7693153 444.7683428 11.87951875 456.24014342 7.0452019 467.73650163 C5.45542034 471.51467243 3.860891 475.29084324 2.26661551 479.06711954 C0.99601032 482.07851374 -0.26944325 485.09193134 -1.52845418 488.10819429 C-2.912872 491.42483604 -4.30890799 494.73636262 -5.70737875 498.0470981 C-6.11356939 499.02969606 -6.51976003 500.01229402 -6.93825948 501.02466768 C-10.88338463 510.30270403 -10.88338463 510.30270403 -14.28550375 512.2814731 C-23.70924597 514.43412597 -34.33585845 509.67882961 -43.242535 506.9533481 C-45.07688167 506.40154837 -46.9114965 505.85063933 -48.74636495 505.3005771 C-52.575861 504.14920895 -56.40226429 502.98822244 -60.22666585 501.82004732 C-65.1217712 500.32551047 -70.02336062 498.85370223 -74.92739999 497.38878435 C-78.71067079 496.25625015 -82.49051478 495.11261846 -86.26939619 493.96553224 C-88.07568982 493.41850845 -89.88296858 492.87472639 -91.69124448 492.3342914 C-94.21684689 491.57747259 -96.73751361 490.80601322 -99.25742757 490.03049654 C-99.99985204 489.81110918 -100.74227651 489.59172182 -101.50719869 489.36568636 C-105.83800765 488.01244272 -108.98528384 486.40944026 -112.28550375 483.2814731 C-115.41378314 477.02491431 -112.1893161 468.7057571 -110.65635335 462.36277193 C-110.23258145 460.56811605 -110.23258145 460.56811605 -109.8002485 458.73720449 C-109.01836012 455.43268386 -108.22951473 452.12996663 -107.43772256 448.82781452 C-106.58838019 445.2778482 -105.74827006 441.7256975 -104.90714681 438.17377657 C-103.45253843 432.03642504 -101.99248904 425.90038948 -100.52875936 419.76520723 C-98.19839452 409.99692483 -95.87926336 400.22599354 -93.56211507 390.4545688 C-92.77234096 387.1245279 -91.98251706 383.79449881 -91.19268453 380.46447176 C-90.99618242 379.63594593 -90.7996803 378.80742011 -90.59722358 377.95378745 C-89.19163553 372.0278231 -87.7845822 366.10220777 -86.37698019 360.17672151 C-81.27199863 338.6842398 -76.19211904 317.18602571 -71.14487875 295.6799106 C-70.90352284 294.65153861 -70.90352284 294.65153861 -70.65729105 293.60239142 C-68.73522025 285.41231834 -66.81456628 277.22191333 -64.89442402 269.03138793 C-62.0528671 256.9109383 -59.20807124 244.7912483 -56.36308444 232.67160338 C-55.89211756 230.6652574 -55.42118357 228.65890371 -54.95025098 226.65254968 C-50.02763355 205.68116243 -45.09218729 184.712814 -40.148785 163.74631685 C-39.89839676 162.68433521 -39.89839676 162.68433521 -39.64295018 161.6008994 C-36.57366986 148.58335137 -33.50319648 135.56608484 -30.43134725 122.54914278 C-29.98285877 120.6485929 -29.98285877 120.6485929 -29.52530992 118.70964807 C-28.93619648 116.2134978 -28.34694834 113.71737931 -27.75755823 111.22129434 C-26.37210298 105.35271881 -24.9891617 99.48357836 -23.61266744 93.612894 C-21.44418082 84.37146396 -19.26891799 75.13478287 -16.95249593 65.92917818 C-13.47108541 52.00488686 -11.2865879 39.08261707 -11.53550375 24.7189731 C-11.55443004 22.2612245 -11.56297483 19.80424169 -11.5552181 17.34642977 C-11.55258783 15.85493836 -11.56566916 14.36329262 -11.59830892 12.87215608 C-11.61689987 8.46573325 -10.93625944 5.80977861 -8.28550375 2.2814731 C-5.62146587 -0.38256477 -3.62377149 0.03175978 0 0 Z M6.71449625 18.2814731 C6.71449625 23.5614731 6.71449625 28.8414731 6.71449625 34.2814731 C17.93449625 34.2814731 29.15449625 34.2814731 40.71449625 34.2814731 C40.71449625 29.0014731 40.71449625 23.7214731 40.71449625 18.2814731 C29.49449625 18.2814731 18.27449625 18.2814731 6.71449625 18.2814731 Z M58.71449625 18.2814731 C58.71449625 23.5614731 58.71449625 28.8414731 58.71449625 34.2814731 C66.63449625 34.2814731 74.55449625 34.2814731 82.71449625 34.2814731 C82.71449625 29.0014731 82.71449625 23.7214731 82.71449625 18.2814731 C74.79449625 18.2814731 66.87449625 18.2814731 58.71449625 18.2814731 Z M100.71449625 18.2814731 C100.71449625 23.5614731 100.71449625 28.8414731 100.71449625 34.2814731 C105.99449625 34.2814731 111.27449625 34.2814731 116.71449625 34.2814731 C116.71449625 29.0014731 116.71449625 23.7214731 116.71449625 18.2814731 C111.43449625 18.2814731 106.15449625 18.2814731 100.71449625 18.2814731 Z M134.71449625 18.2814731 C134.71449625 23.5614731 134.71449625 28.8414731 134.71449625 34.2814731 C142.96449625 34.2814731 151.21449625 34.2814731 159.71449625 34.2814731 C159.71449625 29.0014731 159.71449625 23.7214731 159.71449625 18.2814731 C151.46449625 18.2814731 143.21449625 18.2814731 134.71449625 18.2814731 Z M177.71449625 18.2814731 C177.71449625 23.5614731 177.71449625 28.8414731 177.71449625 34.2814731 C188.60449625 34.2814731 199.49449625 34.2814731 210.71449625 34.2814731 C210.71449625 29.0014731 210.71449625 23.7214731 210.71449625 18.2814731 C199.82449625 18.2814731 188.93449625 18.2814731 177.71449625 18.2814731 Z M4.71449625 52.2814731 C3.43073392 57.79859457 2.14829409 63.31598798 0.86928141 68.83420748 C0.43354626 70.71232022 -0.0029744 72.59025091 -0.4402889 74.46799654 C-1.06783275 77.16316219 -1.69257185 79.85896464 -2.31675375 82.5549106 C-2.51361776 83.39766542 -2.71048177 84.24042024 -2.91331136 85.10871309 C-3.91512091 89.15244813 -3.91512091 89.15244813 -4.28550375 93.2814731 C-0.11907678 93.39850757 4.04692216 93.46900411 8.21449625 93.5314731 C9.97406657 93.58174654 9.97406657 93.58174654 11.76918375 93.6330356 C20.09460024 93.72657961 25.31514341 92.62186668 31.9215275 87.60569185 C42.06892235 77.26078081 40.71449625 67.02951397 40.71449625 52.2814731 C28.83449625 52.2814731 16.95449625 52.2814731 4.71449625 52.2814731 Z M58.71449625 52.2814731 C58.38449625 58.5514731 58.05449625 64.8214731 57.71449625 71.2814731 C55.64634283 84.45234491 51.50016817 94.91451499 40.71449625 103.2814731 C32.73488262 107.98924001 26.31764623 110.37830354 17.10512125 110.59787935 C16.37831156 110.61866045 15.65150187 110.63944155 14.90266764 110.66085237 C12.59003634 110.72602822 10.27729532 110.7850835 7.96449625 110.8439731 C6.39287051 110.88718876 4.82125569 110.93080402 3.2496525 110.97483248 C-0.59528827 111.08167666 -4.44033899 111.18303334 -8.28550375 111.2814731 C-10.27424 116.99212998 -11.97662331 122.68110345 -13.33726156 128.5717563 C-13.61542101 129.75251977 -13.61542101 129.75251977 -13.89919984 130.95713705 C-14.51632173 133.58126011 -15.12745444 136.20674024 -15.73862875 138.83225435 C-16.1863015 140.7411854 -16.6343568 142.65002678 -17.08276021 144.55878633 C-18.05560052 148.70360081 -19.02577342 152.8490275 -19.99390829 156.99494356 C-21.56769958 163.73440606 -23.14729827 170.47249971 -24.72764242 177.21042818 C-26.73067273 185.75241804 -28.73215256 194.29476874 -30.73184526 202.83754057 C-34.75306813 220.01613622 -38.78494469 237.19221474 -42.82066 254.3674106 C-43.14143644 255.73259909 -43.46221243 257.09778769 -43.78298795 258.4629764 C-44.10503918 259.83358698 -44.42709055 261.20419754 -44.74914205 262.57480806 C-45.23414575 264.63892468 -45.71914925 266.70304135 -46.20415092 268.76715845 C-46.52861147 270.14802011 -46.85307635 271.52888076 -47.17754555 272.90974039 C-49.62355865 283.31945168 -52.06796904 293.72953833 -54.51133382 304.13987154 C-55.81883815 309.71051695 -57.12636987 315.28115593 -58.43394125 320.8517856 C-58.59551678 321.54014938 -58.75709231 322.22851316 -58.92356408 322.93773645 C-63.5368682 342.59146848 -68.15866931 362.24318169 -72.78841013 381.89304817 C-73.92120205 386.7011513 -75.05339245 391.50939575 -76.18514669 396.31774324 C-76.34181363 396.98335199 -76.49848058 397.64896074 -76.659895 398.33473945 C-77.43863184 401.64335239 -78.2172871 404.95198452 -78.99588335 408.26063055 C-80.7945595 415.90348755 -82.59624863 423.54562807 -84.39998662 431.18729204 C-85.50178085 435.85818579 -86.60084063 440.52971964 -87.69910467 445.20144457 C-88.20772493 447.36239718 -88.71751173 449.52307559 -89.22853124 451.68346208 C-89.92171788 454.6145938 -90.6108449 457.54665042 -91.29893148 460.47898287 C-91.50277613 461.33648228 -91.70662078 462.1939817 -91.91664255 463.07746595 C-92.64768547 466.20791976 -93.28550375 469.05489405 -93.28550375 472.2814731 C-87.10078989 474.16602265 -80.91586823 476.04988906 -74.73081625 477.93332857 C-72.63636975 478.57120019 -70.54196712 479.20921584 -68.44761312 479.84739107 C-63.37687654 481.39245716 -58.3055185 482.93540928 -53.23276937 484.47385591 C-49.3012667 485.66641279 -45.37333222 486.8698267 -41.44761312 488.08127779 C-39.63840067 488.6350944 -37.82915743 489.18881041 -36.01987875 489.7424106 C-35.19312643 490.00011232 -34.36637411 490.25781404 -33.51456869 490.52332491 C-32.75029562 490.75595033 -31.98602254 490.98857576 -31.19858968 491.22825044 C-30.53599142 491.43267763 -29.87339315 491.63710481 -29.19071615 491.84772676 C-26.96113049 492.42946171 -26.96113049 492.42946171 -23.28550375 492.2814731 C-23.05065267 491.72931123 -22.8158016 491.17714937 -22.57383382 490.60825533 C-8.20201808 456.82088452 6.22379966 423.05718968 20.69838297 389.31369966 C25.20663611 378.80337752 29.7109169 368.29135296 34.21550333 357.77945894 C36.71500549 351.9467275 39.21476381 346.11410585 41.71449625 340.2814731 C42.71449748 337.94814029 43.71449748 335.61480696 44.71449625 333.2814731 C50.71449623 319.28147315 50.71449623 319.28147315 52.21419108 315.78219026 C53.21521324 313.44646849 54.21623049 311.11074461 55.21724284 308.77501863 C57.70156364 302.97821122 60.18596706 297.18143924 62.67055094 291.38474458 C67.35763187 280.44923668 72.04384871 269.51336044 76.72731364 258.57630342 C78.66962915 254.04053121 80.61234137 249.50492894 82.55514109 244.96936411 C83.88040475 241.875383 85.20536848 238.78127424 86.52992594 235.68699068 C87.99193995 232.27163392 89.45470363 228.85659913 90.91762125 225.44162935 C91.34569071 224.44108019 91.77376017 223.44053102 92.21480143 222.40966219 C92.61849955 221.46767473 93.02219767 220.52568727 93.43812907 219.55515474 C93.78321513 218.74921373 94.12830119 217.94327272 94.4838444 217.11290926 C95.71449625 214.2814731 95.71449625 214.2814731 96.73047602 212.4800424 C100.52194371 205.27460909 100.25264005 198.18748264 100.16859782 190.21482271 C100.16746779 188.70612551 100.16810622 187.19742611 100.17036784 185.68873018 C100.17150988 181.61688333 100.14808388 177.54551314 100.12007201 173.47377652 C100.09497281 169.20971355 100.09270967 164.94563822 100.08797038 160.68151277 C100.07556553 152.61749199 100.04277786 144.55368956 100.00257242 136.48976469 C99.95777692 127.30475559 99.93584815 118.11973576 99.91579068 108.93464452 C99.87404279 90.05010532 99.80072181 71.16586521 99.71449625 52.2814731 C86.18449625 52.2814731 72.65449625 52.2814731 58.71449625 52.2814731 Z M117.71449625 52.2814731 C117.71449625 99.4714731 117.71449625 146.6614731 117.71449625 195.2814731 C120.68449625 193.3014731 123.65449625 191.3214731 126.71449625 189.2814731 C128.03873103 188.5943474 129.3629658 187.9072217 130.7273289 187.199274 C133.07265444 185.48266537 133.63884172 184.59703589 134.32502902 181.73487848 C134.58155725 178.33381477 134.57973366 175.00681669 134.50917399 171.59665865 C134.51019618 170.3084572 134.51121836 169.02025575 134.51227152 167.6930179 C134.51427745 164.16794614 134.47316984 160.64454673 134.42425382 157.11986321 C134.38044927 153.43373293 134.37637923 149.74756288 134.36807597 146.06121248 C134.34633201 139.08406422 134.28890757 132.10768513 134.21862954 125.13087535 C134.1403463 117.18664217 134.10188979 109.24237196 134.06676149 101.297849 C133.99362277 84.95859429 133.86911254 68.62016224 133.71449625 52.2814731 C128.43449625 52.2814731 123.15449625 52.2814731 117.71449625 52.2814731 Z M152.71449625 52.2814731 C152.71118611 52.97684994 152.70787596 53.67222677 152.70446551 54.38867563 C152.62321712 71.31492298 152.53111863 88.24107305 152.42696917 105.16719431 C152.37686429 113.35256644 152.33042113 121.53792866 152.29262125 129.72336763 C152.25966254 136.85845277 152.21980989 143.99346053 152.1717062 151.12846023 C152.14647975 154.90578576 152.12468713 158.68306023 152.11115229 162.46044725 C152.09829688 166.01779919 152.0762052 169.57497564 152.04711306 173.1322307 C152.03375867 175.05619097 152.03012251 176.98021105 152.02679789 178.9042148 C152.01563441 180.05678774 152.00447093 181.20936067 151.99296916 182.39686006 C151.9874384 183.39424007 151.98190764 184.39162008 151.97620928 185.41922373 C151.59549761 189.58291304 150.85029404 193.12913603 147.87025797 196.15256685 C147.13565348 196.66948091 146.40104899 197.18639498 145.64418375 197.7189731 C144.82949625 198.30420748 144.01480875 198.88944185 143.17543375 199.4924106 C141.89539469 200.37799654 141.89539469 200.37799654 140.58949625 201.2814731 C138.92006116 202.46874216 137.25078878 203.65624006 135.58168375 204.8439731 C134.46962565 205.61934419 134.46962565 205.61934419 133.33510172 206.41037935 C129.74780251 208.97168559 126.23258231 211.6262317 122.71449625 214.2814731 C129.93653197 231.7346376 137.32152715 249.11440881 144.77699625 266.4689731 C145.81161771 268.8797305 146.84612323 271.29053767 147.88051188 273.70139498 C149.80240516 278.1804618 151.72503044 282.65921293 153.64833415 287.13767427 C157.67414016 296.51733107 161.69371901 305.89965953 165.71449625 315.2814731 C200.36449625 315.2814731 235.01449625 315.2814731 270.71449625 315.2814731 C270.85399713 308.19229576 270.85399713 308.19229576 269.89325297 301.58840364 C269.71039744 300.77204533 269.52754191 299.95568702 269.3391453 299.11459059 C269.13518641 298.25015742 268.93122752 297.38572426 268.72108805 296.49509615 C268.5074058 295.55422309 268.29372355 294.61335003 268.07356608 293.64396566 C267.36279095 290.52486175 266.63825061 287.40912551 265.913715 284.29319185 C265.40370469 282.06703433 264.89459555 279.84067019 264.38632548 277.6141147 C263.01896366 271.63468462 261.63997455 265.65799199 260.25880778 259.68173784 C258.82895409 253.48584735 257.40962569 247.28754907 255.98988688 241.08933443 C254.26012911 233.53974873 252.52971548 225.99031887 250.794788 218.44191927 C247.1126256 202.41748756 243.46690642 186.38528798 239.8590275 170.3439731 C239.41069213 168.35201142 238.96234334 166.36005275 238.51398051 164.36809725 C236.83501298 156.90662867 235.15703084 149.44494252 233.48460734 141.98200411 C232.5314598 137.7292203 231.57498023 133.47719952 230.61597598 129.22573274 C230.26859631 127.68256144 229.92255024 126.13908924 229.57792437 124.59530061 C229.11373612 122.51621601 228.64515934 120.43816986 228.17543375 118.36033052 C227.91552653 117.20208269 227.6556193 116.04383486 227.3878361 114.8504886 C226.96772515 112.36646021 226.96772515 112.36646021 225.71449625 111.2814731 C223.47946568 111.17125813 221.24121754 111.1254954 219.00355875 111.10569185 C217.59859656 111.08245092 216.19364867 111.058332 214.788715 111.03342623 C212.57947673 110.99864082 210.37074939 110.96916576 208.1612736 110.95554537 C194.54377208 110.85521238 183.19055615 108.61089957 172.71449625 99.2814731 C159.99029939 85.54637286 159.97788947 69.99920775 159.71449625 52.2814731 C157.40449625 52.2814731 155.09449625 52.2814731 152.71449625 52.2814731 Z M177.71449625 52.2814731 C177.65262125 55.3958481 177.59074625 58.5102231 177.52699625 61.7189731 C177.49968424 62.68117769 177.47237223 63.64338228 177.44423258 64.63474458 C177.36469539 73.01693823 178.97756103 80.49779685 184.8812443 86.72312349 C192.50635072 93.20481935 200.1512967 93.96009692 209.83949625 93.5939731 C211.56039469 93.56013521 211.56039469 93.56013521 213.31605875 93.52561373 C216.1169474 93.46726188 218.91499374 93.38545462 221.71449625 93.2814731 C221.11866653 88.02581897 220.29030179 82.95526859 219.12074625 77.7892856 C218.96916056 77.11727113 218.81757487 76.44525667 218.66139567 75.75287813 C218.34386618 74.34923024 218.02447316 72.94600267 217.70326579 71.54319185 C217.21117184 69.39193998 216.72610013 67.23918797 216.24184 65.0861606 C214.97969407 58.51223577 214.97969407 58.51223577 212.71449625 52.2814731 C201.16449625 52.2814731 189.61449625 52.2814731 177.71449625 52.2814731 Z M117.71449625 333.2814731 C117.71449625 353.4114731 117.71449625 373.5414731 117.71449625 394.2814731 C130.03293053 396.77425168 130.03293053 396.77425168 142.35316813 399.2580356 C147.37936966 400.26925084 152.40534485 401.28151019 157.43007243 402.30002779 C161.48166137 403.12122048 165.53417504 403.93769547 169.58736956 404.750925 C171.13263376 405.06182379 172.67755878 405.37441344 174.22213137 405.68873018 C176.38757326 406.12909007 178.55414927 406.56339206 180.72108805 406.99631685 C181.95352747 407.24502535 183.1859669 407.49373384 184.45575297 407.74997896 C187.30934715 408.21539414 189.83588227 408.49442358 192.71449625 408.2814731 C194.53208021 407.0307826 194.53208021 407.0307826 196.02699625 405.2189731 C198.41268921 402.65371186 200.80619096 400.25218011 203.46449625 397.9689731 C206.76316542 395.12419059 209.99756264 392.21848017 213.21449625 389.2814731 C216.33356637 386.43623082 219.46205017 383.6094773 222.65199625 380.8439731 C226.60116993 377.41378734 230.4447193 373.87143792 234.29237711 370.32859224 C237.67912244 367.21548011 241.11355874 364.16895228 244.58949625 361.1564731 C247.33273346 358.73596969 250.0232088 356.25932512 252.71449625 353.7814731 C265.45326541 342.06308095 265.45326541 342.06308095 268.93324625 339.9064731 C269.52105875 339.3702231 270.10887125 338.8339731 270.71449625 338.2814731 C270.71449625 336.6314731 270.71449625 334.9814731 270.71449625 333.2814731 C220.22449625 333.2814731 169.73449625 333.2814731 117.71449625 333.2814731 Z " fill="#8F8F8F" transform="translate(168.28550374507904,-0.2814731001853943)"/>
</svg>
