<?xml version="1.0" encoding="UTF-8"?>
<svg version="1.1" xmlns="http://www.w3.org/2000/svg" width="512" height="512">
<path d="M0 0 C36.4568652 6.46272058 72.82404515 6.49270587 109.25 -0.5625 C122.59110162 -3.05253642 131.77906642 -4.09944508 144.10546875 2.07421875 C145.08391754 2.55340759 146.06236633 3.03259644 147.07046509 3.52630615 C149.8826766 4.9068956 152.68941779 6.29802776 155.49469376 7.6926384 C158.16205984 9.01526854 160.83461867 10.327249 163.50701427 11.63967991 C171.07428009 15.35618247 178.62955589 19.09625187 186.1759367 22.85497379 C190.13175212 24.82520542 194.0894838 26.79133082 198.05224609 28.74755859 C201.96065287 30.67700226 205.86398098 32.616374 209.76395035 34.56281281 C211.22848587 35.2917572 212.6946997 36.01734115 214.16271591 36.73925018 C229.28968848 44.1847401 240.70465307 52.27767347 248.30078125 67.70703125 C248.73327682 68.56068771 249.1657724 69.41434418 249.6113739 70.29386902 C250.98115326 73.00300327 252.33482966 75.71978956 253.6875 78.4375 C255.02698832 81.10213626 256.36981341 83.76507306 257.71279907 86.427948 C258.6058829 88.19951033 259.4976241 89.97175013 260.38803101 91.74465942 C264.56871904 100.05602062 268.90477399 108.2817813 273.25643921 116.50448608 C276.08124366 121.85961491 278.84949371 127.24420917 281.625 132.625 C282.90852698 135.11084611 284.19253954 137.5964413 285.4765625 140.08203125 C285.79769012 140.70382767 286.11881775 141.32562408 286.44967651 141.96626282 C288.71900919 146.35914975 290.99450372 150.74880581 293.2734375 155.13671875 C293.58877441 155.74403839 293.90411133 156.35135803 294.22900391 156.9770813 C295.72504839 159.85821752 297.2218048 162.73897988 298.71972656 165.61914062 C299.78213873 167.66512647 300.84038366 169.71328338 301.89379883 171.76391602 C302.86445055 173.63882413 303.8533164 175.50443939 304.86206055 177.35913086 C308.91908433 184.98305369 310.234433 192.35761701 307.7109375 200.86328125 C303.25388991 209.60297022 293.74356408 213.7740773 285.375 217.8125 C284.2192749 218.38000977 283.0635498 218.94751953 281.87280273 219.53222656 C278.37956705 221.24259362 274.87912808 222.93707605 271.375 224.625 C270.41996582 225.08535645 269.46493164 225.54571289 268.48095703 226.02001953 C264.89674902 227.74363342 261.30952552 229.46066657 257.71728516 231.16748047 C251.66811656 234.04189346 245.63550969 236.94858447 239.61328125 239.87890625 C238.84325272 240.25355011 238.07322418 240.62819397 237.27986145 241.01419067 C233.45000729 242.87824265 229.62116462 244.74434945 225.79321289 246.61230469 C201.14977403 258.625 201.14977403 258.625 198.375 258.625 C198.37776538 260.29506088 198.37776538 260.29506088 198.38058662 261.99886036 C198.42501449 289.10792472 198.4578652 316.21698436 198.47862434 343.32607746 C198.48893051 356.43590401 198.50297827 369.54570648 198.52587891 382.65551758 C198.54583293 394.08395933 198.55872123 405.51238364 198.56317699 416.94084233 C198.56578095 422.99033625 198.57188774 429.03978029 198.58646011 435.08925819 C198.60007577 440.78795758 198.60421458 446.48658672 198.60121536 452.18530083 C198.60176374 454.27217109 198.60571735 456.35904381 198.61341095 458.44589996 C198.71826127 488.36383107 198.71826127 488.36383107 188.875 499.4375 C188.05 500.159375 187.225 500.88125 186.375 501.625 C185.653125 502.305625 184.93125 502.98625 184.1875 503.6875 C176.98642872 508.64823799 169.82295717 510.21933299 161.2043457 510.13293457 C160.23097165 510.13917453 159.2575976 510.1454145 158.25472736 510.15184355 C155.0198262 510.16769373 151.78568691 510.15520037 148.55078125 510.14257812 C146.2207292 510.14800277 143.89068058 510.15512735 141.56063843 510.16381836 C135.25075707 510.18201367 128.94113808 510.17499965 122.63125229 510.16230202 C116.68979978 510.15318436 110.74837928 510.16015405 104.80692589 510.1660108 C92.32242795 510.17739832 79.83804777 510.1643317 67.35356915 510.14280933 C56.65720331 510.12493997 45.96101115 510.12804459 35.26464844 510.14648438 C22.82274489 510.16792351 10.38094437 510.17629985 -2.06097507 510.16403532 C-8.63959992 510.1578084 -15.2181053 510.15694286 -21.79672241 510.17018127 C-27.98237352 510.18176006 -34.16769756 510.17367648 -40.35331345 510.15060425 C-42.61959669 510.14532807 -44.88590759 510.14681217 -47.15217972 510.15565491 C-50.25326976 510.16663681 -53.35332126 510.15281416 -56.4543457 510.13293457 C-57.34444179 510.14185746 -58.23453787 510.15078034 -59.15160656 510.15997362 C-69.61249938 510.03050217 -77.40248417 505.99868476 -84.625 498.625 C-93.0140796 489.76986042 -93.78622697 478.99034298 -93.74525452 467.38684082 C-93.74610894 466.48979101 -93.74696337 465.59274119 -93.74784368 464.66850805 C-93.74948293 461.68067737 -93.7440027 458.69290358 -93.73852539 455.70507812 C-93.73824316 453.55614218 -93.73840196 451.40720615 -93.7389679 449.25827026 C-93.73925446 443.43660714 -93.73338049 437.61496468 -93.72639394 431.79330635 C-93.72013695 425.70477529 -93.71955474 419.61624374 -93.71836853 413.52770996 C-93.71526214 402.00361606 -93.70705806 390.47953167 -93.69701904 378.95544195 C-93.68583644 365.83337918 -93.68034204 352.71131596 -93.67532361 339.58924961 C-93.66487488 312.60116114 -93.64728882 285.6130811 -93.625 258.625 C-94.55684616 258.32095245 -95.48869232 258.01690491 -96.44877625 257.7036438 C-99.57389802 256.6423542 -102.42904745 255.37426564 -105.39453125 253.9296875 C-106.5134375 253.38699219 -107.63234375 252.84429687 -108.78515625 252.28515625 C-110.00262538 251.69014757 -111.22007264 251.09509413 -112.4375 250.5 C-113.72117979 249.87594325 -115.00503802 249.25225347 -116.2890625 248.62890625 C-119.00693617 247.30883552 -121.72381378 245.98674544 -124.43994141 244.66308594 C-129.95201162 241.97750828 -135.47000077 239.30416635 -140.98779297 236.63037109 C-143.74659072 235.29350982 -146.50468792 233.95521928 -149.26220703 232.61572266 C-156.14881882 229.27151421 -163.04198146 225.94204299 -169.94921875 222.640625 C-171.93597808 221.68902249 -173.92259514 220.73712358 -175.90917969 219.78515625 C-177.16114586 219.18647361 -178.41389319 218.58942134 -179.66748047 217.99414062 C-199.61896162 208.51976164 -199.61896162 208.51976164 -203.625 198.625 C-205.27258499 187.55304476 -201.92440645 179.40880244 -196.75 169.9375 C-196.04932659 168.60463189 -195.35127654 167.27038165 -194.65576172 165.93481445 C-193.28504131 163.31397452 -191.89941721 160.70216104 -190.49609375 158.09863281 C-188.9782194 155.28074187 -187.47950671 152.45530272 -186 149.6171875 C-184.48078313 146.70567979 -182.94830369 143.80181707 -181.40625 140.90234375 C-178.00583529 134.48148491 -174.69268162 128.01559526 -171.37042236 121.55407715 C-157.350593 94.28731526 -157.350593 94.28731526 -151.109375 82.45214844 C-150.06137081 80.45611414 -149.02036457 78.45639807 -147.984375 76.45410156 C-146.29522474 73.19105843 -144.5868114 69.93870122 -142.875 66.6875 C-142.36807617 65.69806396 -141.86115234 64.70862793 -141.33886719 63.68920898 C-131.71763409 45.59264596 -112.97688065 38.64706591 -95.42578125 29.91015625 C-93.61437079 29.00504864 -91.80310947 28.09964248 -89.99198914 27.19395447 C-86.22904836 25.31325956 -82.46479539 23.43522786 -78.69946289 21.55932617 C-73.87102896 19.15367444 -69.04530206 16.74265052 -64.22044086 14.32984257 C-60.4955771 12.46754636 -56.7696766 10.60733279 -53.04341698 8.74783134 C-51.26214913 7.8587877 -49.48112256 6.96926046 -47.70034218 6.0792408 C-45.22481221 4.84255681 -42.74798521 3.60851191 -40.27075195 2.37524414 C-39.53677185 2.0080275 -38.80279175 1.64081085 -38.04656982 1.26246643 C-25.79400262 -4.82504235 -13.03740933 -2.45320214 0 0 Z M-13.625 16.625 C-11.9742082 30.34188854 -5.13651964 41.90473711 5.08203125 51.046875 C22.90682193 64.61309624 44.71721875 67.59483898 66.5 64.875 C82.78408434 62.2549909 97.83923541 55.59259495 107.88085938 42.15429688 C112.58575867 35.56743786 116.43526092 28.55117522 118.375 20.625 C117.95747913 18.4955584 117.95747913 18.4955584 117.375 16.625 C116.73288574 16.73569824 116.09077148 16.84639648 115.42919922 16.96044922 C71.86989758 24.39438438 29.95471508 24.27722892 -13.625 16.625 Z M-40.82861328 23.11328125 C-41.5701767 23.48391693 -42.31174011 23.85455261 -43.07577515 24.23641968 C-45.53420195 25.46633151 -47.98974437 26.70189191 -50.4453125 27.9375 C-52.14621848 28.78981741 -53.84730106 29.64178249 -55.54855347 30.4934082 C-60.03182381 32.73886662 -64.51267135 34.98911905 -68.99304199 37.24035645 C-73.56292646 39.53551693 -78.13507104 41.8261655 -82.70703125 44.1171875 C-91.68191343 48.61536251 -100.65424419 53.11860202 -109.625 57.625 C-109.625 61.23449632 -109.11509175 61.45486081 -106.6875 63.9375 C-94.95513504 76.94717888 -87.20540345 93.31139967 -82.3125 110 C-81.96699097 111.16414429 -81.96699097 111.16414429 -81.61450195 112.35180664 C-76.37239456 131.43307756 -76.1870961 150.48106766 -76.23623729 170.10475993 C-76.24311365 174.19599489 -76.23246112 178.28719127 -76.22395325 182.37841797 C-76.21146117 189.44716751 -76.20938804 196.51585588 -76.21430969 203.5846138 C-76.22115313 213.81430381 -76.20853938 224.04390254 -76.19080251 234.27357619 C-76.1622373 250.88859756 -76.14466134 267.50360903 -76.13623047 284.11865234 C-76.13572329 285.11039358 -76.13521611 286.10213482 -76.13469356 287.12392883 C-76.13065965 295.17493092 -76.12716382 303.22593323 -76.12369633 311.27693558 C-76.12063721 318.32964338 -76.11736531 325.38235104 -76.11376953 332.43505859 C-76.11326692 333.42860873 -76.1127643 334.42215887 -76.11224645 335.44581659 C-76.1035009 352.01585244 -76.08306778 368.58585412 -76.05428743 385.15586698 C-76.03712816 395.36111814 -76.03051327 405.56627258 -76.03759348 415.77153628 C-76.04177416 422.75681202 -76.03541874 429.74202668 -76.02079475 436.7272882 C-76.01274369 440.754816 -76.00961441 444.78219228 -76.01961708 448.80971909 C-76.0287041 452.49927695 -76.02394926 456.18855355 -76.00840265 459.87808745 C-76.00372329 461.83795382 -76.0137769 463.79783848 -76.02443075 465.75768149 C-75.97608111 473.23677495 -75.77997011 480.74628397 -70.87109375 486.78125 C-70.27425781 487.2246875 -69.67742187 487.668125 -69.0625 488.125 C-68.16337891 488.82109375 -68.16337891 488.82109375 -67.24609375 489.53125 C-63.23163286 492.23980193 -59.30467645 491.77313899 -54.61724854 491.77217102 C-53.19995913 491.77768605 -53.19995913 491.77768605 -51.75403762 491.7833125 C-48.56811603 491.79438068 -45.38222703 491.79819848 -42.19628906 491.80200195 C-39.92004288 491.80826422 -37.64379773 491.8149108 -35.36755371 491.82191467 C-29.16912341 491.83934603 -22.97070084 491.84988216 -16.77225208 491.8581202 C-12.9023837 491.86326562 -9.03251774 491.86934154 -5.16265106 491.87563133 C5.5500706 491.89250392 16.26278852 491.90713894 26.97552109 491.91438007 C29.75614168 491.91629 32.53676226 491.91821033 35.31738281 491.92016602 C36.00850057 491.92064976 36.69961834 491.9211335 37.41167906 491.9216319 C48.6075735 491.92993235 59.80336111 491.95526898 70.9992089 491.98774669 C82.49153431 492.02081286 93.98378937 492.03849563 105.4761641 492.04202431 C111.92961269 492.04437855 118.38289246 492.05338772 124.83629608 492.07848549 C130.9068819 492.10171246 136.97718711 492.10602097 143.04780579 492.09572411 C145.27707602 492.09522733 147.50635982 492.10158917 149.73558807 492.11528015 C152.77716875 492.13291638 155.81773338 492.12593324 158.85931396 492.11274719 C159.74317268 492.12371644 160.6270314 492.13468568 161.53767371 492.14598733 C166.97966879 492.08896032 170.04338304 491.2218661 174.375 487.625 C181.43826968 480.36552839 180.66303115 471.67425146 180.63328552 462.1552124 C180.63614234 460.77677721 180.63988153 459.39834362 180.64442402 458.01991296 C180.65438545 454.24145259 180.65203669 450.46308528 180.64769709 446.684618 C180.64521724 442.6052555 180.65429424 438.52591724 180.66207886 434.44656372 C180.6741184 427.37763806 180.67923155 420.30873493 180.67996025 413.2397995 C180.68128777 402.9986534 180.69641732 392.75756178 180.71545542 382.51643494 C180.74629728 365.87294254 180.77045944 349.22944876 180.78833008 332.5859375 C180.78940276 331.59003335 180.79047544 330.59412919 180.79158062 329.56804612 C180.8033861 318.47151275 180.81359264 307.37497883 180.82202148 296.27844238 C180.82509512 292.26180012 180.82818397 288.24515786 180.83129883 284.22851562 C180.83206417 283.23746684 180.83282951 282.24641805 180.83361804 281.22533748 C180.8467325 264.65788953 180.87142046 248.09048084 180.90504223 231.52306199 C180.92525814 221.31864342 180.93563188 211.11430904 180.93305302 200.9098703 C180.93201222 193.90384506 180.94174615 186.89788604 180.95969205 179.89188394 C180.96966511 175.85915455 180.97494376 171.82657179 180.96692467 167.79383469 C180.93160712 148.15028557 181.39813301 129.12870105 187 110.125 C187.25160889 109.26390625 187.50321777 108.4028125 187.76245117 107.515625 C193.29780914 89.47006122 202.43966077 73.39219384 215.375 59.625 C212.64021195 56.34566454 209.02533472 54.74286024 205.27319336 52.88793945 C204.55420364 52.52661926 203.83521393 52.16529907 203.09443665 51.79302979 C200.72082602 50.60217648 198.34298743 49.42005272 195.96484375 48.23828125 C194.31461999 47.41342867 192.6646034 46.58816152 191.01478577 45.76249695 C187.55917621 44.03473701 184.10153752 42.31112877 180.64233398 40.59057617 C176.20110512 38.38132286 171.76437474 36.16320867 167.32903194 33.94216633 C163.92402781 32.23799666 160.51704586 30.53781383 157.10940742 28.83891869 C155.47214929 28.0222183 153.83543311 27.20443054 152.19926262 26.38555336 C149.91725903 25.24436688 147.63273595 24.10839643 145.34741211 22.97387695 C144.66736115 22.63261276 143.98731018 22.29134857 143.28665161 21.93974304 C139.98929613 20.19901357 139.98929613 20.19901357 136.375 19.625 C136.02308594 20.77355469 135.67117188 21.92210938 135.30859375 23.10546875 C128.52311657 44.69350287 118.28905145 62.4773103 97.625 73.375 C72.44689109 85.32439439 42.8849629 85.46416908 16.5 77.4375 C-2.78396072 70.49693655 -16.18279512 57.31630888 -24.9375 39.125 C-27.71490903 32.78879389 -29.77225792 26.28397301 -31.625 19.625 C-35.00835656 19.625 -37.85798716 21.61278589 -40.82861328 23.11328125 Z M-124.625 71.625 C-125.10743164 72.56480713 -125.58986328 73.50461426 -126.08691406 74.47290039 C-142.31032891 106.07189948 -142.31032891 106.07189948 -150.22021484 121.19067383 C-154.16885691 128.74074278 -158.08775872 136.30602704 -162 143.875 C-162.63002474 145.09343525 -163.26007026 146.31185976 -163.89013672 147.53027344 C-166.80420158 153.16597378 -169.71682054 158.80241417 -172.62640381 164.44042969 C-173.91964734 166.94549884 -175.21432958 169.44982253 -176.50933838 171.95397949 C-177.41878434 173.71378463 -178.32635541 175.47455828 -179.23388672 177.23535156 C-179.78189941 178.29463867 -180.32991211 179.35392578 -180.89453125 180.4453125 C-181.37510986 181.37617676 -181.85568848 182.30704102 -182.35083008 183.26611328 C-183.625 185.625 -183.625 185.625 -185.625 188.625 C-186.45925785 191.03674293 -186.45925785 191.03674293 -185.625 193.625 C-180.14969614 198.05798484 -173.23153218 200.92307475 -166.93359375 203.9765625 C-165.91185562 204.47610443 -164.89011749 204.97564636 -163.8374176 205.49032593 C-160.58109835 207.08099318 -157.32181678 208.66548551 -154.0625 210.25 C-151.93275631 211.28998295 -149.80319752 212.33034465 -147.67382812 213.37109375 C-141.33035566 216.46843945 -134.97917566 219.54968081 -128.625 222.625 C-127.58047668 223.13123901 -126.53595337 223.63747803 -125.45977783 224.15905762 C-122.40343498 225.63858469 -119.34473098 227.11310716 -116.28515625 228.5859375 C-114.93797768 229.23835922 -114.93797768 229.23835922 -113.56358337 229.90396118 C-107.01113748 233.04736197 -100.35491756 235.88367359 -93.625 238.625 C-93.55507245 226.2886804 -93.50197366 213.952409 -93.46956348 201.61593056 C-93.45399765 195.88580888 -93.432928 190.15582415 -93.39868164 184.42578125 C-93.3657609 178.88198908 -93.34807897 173.33832752 -93.34036827 167.79444504 C-93.33488285 165.69365767 -93.32417389 163.59287634 -93.30780983 161.49214554 C-93.06698586 129.25451489 -99.76927072 97.46359347 -122.09375 73.1015625 C-123.39044136 71.50931074 -123.39044136 71.50931074 -124.625 71.625 Z M226.625 73.28515625 C207.08840587 94.14454061 198.14572753 123.16262908 198.26147461 151.4375 C198.26132858 152.38476456 198.26118256 153.33202911 198.2610321 154.30799866 C198.26172425 157.41368973 198.26948374 160.51931951 198.27734375 163.625 C198.27921041 165.78832974 198.28063314 167.95165991 198.28163147 170.11499023 C198.28543709 175.78994935 198.29525059 181.4648826 198.30633545 187.13983154 C198.3165917 192.93826955 198.3211381 198.73671177 198.32617188 204.53515625 C198.3368747 215.89844882 198.35392752 227.26172225 198.375 238.625 C205.68229837 235.8374603 212.6946299 232.62492562 219.69921875 229.15234375 C221.29416924 228.36761436 221.29416924 228.36761436 222.92134094 227.56703186 C226.30345094 225.90232581 229.68310248 224.23270456 233.0625 222.5625 C237.48215857 220.38225582 241.90302707 218.204477 246.32421875 216.02734375 C247.409841 215.49176849 248.49546326 214.95619324 249.61398315 214.40438843 C255.01422447 211.74581815 260.42542657 209.11527575 265.86572266 206.53955078 C266.90219437 206.04854385 267.93866608 205.55753693 269.00654602 205.051651 C270.94643045 204.13562912 272.88833071 203.22385795 274.83268738 202.31736755 C280.26266352 199.75528667 285.36782109 196.94097638 290.375 193.625 C289.8968089 187.7170261 288.11869586 183.63890302 285.25 178.5 C284.33441138 176.8107221 283.42045572 175.12055849 282.5078125 173.4296875 C282.00668945 172.50639648 281.50556641 171.58310547 280.98925781 170.63183594 C278.29322671 165.61000909 275.68802921 160.54118893 273.07791138 155.47436523 C271.4673767 152.34871587 269.85250013 149.22531026 268.23828125 146.1015625 C267.9156279 145.47691101 267.59297455 144.85225952 267.26054382 144.2086792 C263.37922723 136.69500833 259.48530449 129.18787811 255.59057617 121.68115234 C252.91637523 116.52671431 250.24313097 111.37179651 247.57572937 106.21383667 C246.63683752 104.39840772 245.69750808 102.58320583 244.75805664 100.76806641 C243.58972537 98.51036846 242.42217596 96.25226564 241.25561523 93.99365234 C237.37306965 86.49427344 233.39842678 79.04949507 229.375 71.625 C228.09388385 71.51029357 228.09388385 71.51029357 226.625 73.28515625 Z " fill="#8F8F8F" transform="translate(203.625,2.375)"/>
</svg>
