<?xml version="1.0" encoding="UTF-8"?>
<svg version="1.1" xmlns="http://www.w3.org/2000/svg" width="512" height="512">
<path d="M0 0 C11.46299155 7.33700514 21.68940967 16.80534004 31.7265625 25.94921875 C33.84763649 27.86255869 36.00974725 29.71433052 38.1875 31.5625 C41.5227214 34.46327372 44.37349183 37.60709895 47.2265625 40.9765625 C49.02461917 43.02808972 50.9157426 44.91519541 52.875 46.8125 C57.6662609 51.54868893 61.79679231 56.7443251 66 62 C66.9136781 63.10166131 67.82911048 64.20186952 68.74609375 65.30078125 C82.77169198 82.25093623 94.68246515 101.01637795 104.89453125 120.48828125 C113.02679229 135.94732975 120.95799504 147.4078703 135.10546875 157.79296875 C141.94550295 163.00837944 146.24250976 168.96104316 147.5390625 177.5859375 C148.09082839 201.91379721 131.805433 221.42209611 115.90625 238.3125 C108.51419628 246.00326827 100.55448162 252.64907241 92 259 C91.26974609 259.54269531 90.53949219 260.08539063 89.78710938 260.64453125 C85.77625677 263.61826799 81.75461367 266.57695528 77.7265625 269.52734375 C73.46108139 272.65438504 69.22489151 275.81842301 65 279 C56.85048791 285.13077875 48.63976671 291.17710787 40.42333984 297.21777344 C36.44677489 300.1423074 32.47349592 303.07129832 28.5 306 C23.71651327 309.52571284 18.93228049 313.05038925 14.14453125 316.5703125 C6.73980537 322.01636895 -0.65424366 327.47457766 -8 333 C-16.1498895 339.13028521 -24.3602261 345.17710259 -32.57666016 351.21777344 C-36.55322518 354.14230746 -40.52646271 357.07135433 -44.5 360 C-46.08331696 361.16668888 -47.66665031 362.33335553 -49.25 363.5 C-50.425625 364.36625 -50.425625 364.36625 -51.625 365.25 C-58.75 370.5 -58.75 370.5 -61.12475586 372.24975586 C-62.70898481 373.41712531 -64.29313188 374.58460588 -65.87719727 375.75219727 C-69.8211657 378.65902557 -73.76651162 381.5639448 -77.71484375 384.46484375 C-85.83971746 390.43743304 -93.93940618 396.44087274 -102 402.5 C-110.83960249 409.14470604 -119.72940267 415.71854559 -128.64111328 422.26611328 C-132.59679621 425.17371628 -136.54816989 428.08716394 -140.5 431 C-142.08331288 432.16669442 -143.66664621 433.3333611 -145.25 434.5 C-146.425625 435.36625 -146.425625 435.36625 -147.625 436.25 C-150 438 -152.375 439.75 -154.75 441.5 C-155.53407227 442.0777417 -156.31814453 442.6554834 -157.12597656 443.25073242 C-158.70603832 444.4149799 -160.28611639 445.57920523 -161.86621094 446.7434082 C-166.68793035 450.29607095 -171.50909817 453.8494801 -176.32958984 457.40380859 C-177.93355895 458.58583384 -179.53804513 459.76715776 -181.14306641 460.94775391 C-184.79477336 463.6339711 -188.44132209 466.32612036 -192.0703125 469.04296875 C-225.82703013 494.23977938 -263.55365408 508.20446761 -305.8125 508.5 C-306.53774872 508.51044342 -307.26299744 508.52088684 -308.01022339 508.53164673 C-321.4885363 508.68362544 -332.04299171 506.58082852 -342 497 C-344.60662083 494.07444519 -346.92038918 491.00599865 -349.1875 487.8125 C-350.09302612 486.55675171 -350.09302612 486.55675171 -351.0168457 485.27563477 C-359.6852604 473.04556823 -365.61940209 460.80953841 -365.375 445.5625 C-365.36484863 444.64090088 -365.35469727 443.71930176 -365.34423828 442.76977539 C-365.19284165 436.13120924 -364.58431586 430.17690647 -362 424 C-361.5978125 423.03191406 -361.195625 422.06382812 -360.78125 421.06640625 C-355.67137944 409.92404961 -348.35062638 401.68087903 -338.75390625 394.1796875 C-336.06266021 392.04959489 -333.53031884 389.8177881 -331 387.5 C-326.70008209 383.58108748 -322.24080453 379.90829131 -317.71875 376.25 C-314.26028884 373.38782524 -310.9497393 370.38820241 -307.67138672 367.32226562 C-305 365 -305 365 -302.44384766 363.36523438 C-291.88450585 356.31919942 -288.78614784 345.39597958 -284.375 334 C-283.50908909 331.83399251 -282.63989698 329.66929413 -281.76757812 327.50585938 C-279.99829054 323.10843998 -278.24434522 318.70540376 -276.50292969 314.296875 C-273.27412412 306.14275709 -269.90558827 298.04858682 -266.52487183 289.95657349 C-265.1448065 286.64861652 -263.77371339 283.33697303 -262.40263367 280.02528381 C-257.65636204 268.56173796 -252.8802822 257.11064607 -248.10415649 245.65951538 C-241.64794416 230.17940206 -235.20310469 214.69483104 -228.8125 199.1875 C-228.51582428 198.4684549 -228.21914856 197.74940979 -227.91348267 197.00857544 C-227.09351124 195.02051268 -226.27497447 193.03186669 -225.45703125 191.04296875 C-225.00303955 189.93977295 -224.54904785 188.83657715 -224.08129883 187.69995117 C-222.7360884 184.34102543 -221.86225209 181.45642917 -221.5894928 177.865448 C-221.52369522 177.02450089 -221.45789764 176.18355377 -221.3901062 175.31712341 C-221.32203766 174.39762405 -221.25396912 173.47812469 -221.18383789 172.53076172 C-221.10887589 171.55966965 -221.03391388 170.58857758 -220.9566803 169.58805847 C-220.79409285 167.47653416 -220.63321567 165.36487762 -220.47383308 163.25310898 C-220.22089555 159.90639097 -219.96280352 156.5601073 -219.70323181 153.21389771 C-218.96601012 143.69850524 -218.23784867 134.18242773 -217.51391602 124.66601562 C-217.07081907 118.8460686 -216.62141435 113.02663536 -216.16827202 107.20746231 C-215.99718195 104.99338661 -215.82854961 102.77911952 -215.66246223 100.56466293 C-215.42937676 97.45782616 -215.18830369 94.35170021 -214.94555664 91.24560547 C-214.87951233 90.3382515 -214.81346802 89.43089752 -214.74542236 88.49604797 C-213.98545389 78.99479681 -212.94558175 70.97597817 -206 64 C-195.29507494 55.84483024 -181.51087103 56.68614112 -168.59765625 58.30029297 C-152.25014496 61.28744296 -138.72044459 69.75637957 -129.02954102 83.19433594 C-122.67422634 92.47326513 -117.59738201 103.02036366 -115 114 C-95.83104396 110.93794598 -74.20755092 105.13782703 -61.55078125 89.171875 C-51.56447135 74.41732705 -51.73440501 57.57113061 -52.11645508 40.53100586 C-52.41065473 26.32971331 -51.38686701 15.22966492 -41.40625 4.24609375 C-30.50540052 -6.01201696 -12.838897 -7.55355107 0 0 Z M-31.3125 20.125 C-35.30098969 26.92020465 -34.05207905 36.10349152 -33.93408203 43.73413086 C-33.57512057 67.37367172 -36.06577222 88.77434232 -52.76171875 106.9140625 C-65.77249738 119.27571335 -83.48339195 125.87084799 -100.5625 130.140625 C-101.696875 130.42421875 -102.83125 130.7078125 -104 131 C-105.70434204 131.1868335 -105.70434204 131.1868335 -107.44311523 131.37744141 C-111.48115255 133.21948932 -111.71909085 133.72543893 -113.31665039 137.64111328 C-114.02260624 139.69110311 -114.69745724 141.75196214 -115.34765625 143.8203125 C-115.90823982 145.48400375 -115.90823982 145.48400375 -116.48014832 147.18130493 C-117.70036315 150.82108851 -118.88099023 154.47248899 -120.0625 158.125 C-120.90360945 160.65371957 -121.74707819 163.18148952 -122.59472656 165.70800781 C-124.29265422 170.77750619 -125.97631968 175.85144308 -127.65087891 180.92871094 C-130.4695787 189.44914075 -133.42137483 197.91993155 -136.41293335 206.38092041 C-137.81363433 210.34520702 -139.20306794 214.31344016 -140.59375 218.28125 C-141.0055677 219.45495651 -141.0055677 219.45495651 -141.42570496 220.65237427 C-143.90232087 227.71287801 -146.36354409 234.77871059 -148.82319641 241.84513855 C-151.349754 249.10325588 -153.88198853 256.3593728 -156.41899109 263.61384583 C-157.79417681 267.5464924 -159.16764111 271.47969706 -160.53369141 275.41552734 C-161.86787312 279.25928825 -163.21432935 283.09862343 -164.5625 286.9375 C-164.93149414 288.00709961 -165.30048828 289.07669922 -165.68066406 290.17871094 C-173.55801429 312.46322581 -185.71670763 326.70261353 -206.98291016 336.95605469 C-211.16642045 338.87840172 -215.39939916 340.68234109 -219.64227295 342.46908569 C-222.01301538 343.46936185 -224.37736597 344.4836256 -226.74072266 345.5012207 C-234.44483672 348.81294588 -242.16602008 352.07821311 -249.92073059 355.26976013 C-253.4061572 356.7094757 -256.88207044 358.1713342 -260.35696411 359.63626099 C-262.00446965 360.32406774 -263.65628919 361.001653 -265.31271362 361.66769409 C-276.75810834 366.27319628 -285.37486492 371.91952792 -294.31655884 380.42651367 C-297.14612177 383.07126223 -300.10749027 385.55997879 -303.0625 388.0625 C-304.21921123 389.05154417 -305.37551724 390.04106264 -306.53125 391.03125 C-307.10230469 391.51980469 -307.67335938 392.00835937 -308.26171875 392.51171875 C-310.01952918 394.01672049 -311.77564446 395.52367703 -313.53125 397.03125 C-314.11503418 397.53205078 -314.69881836 398.03285156 -315.30029297 398.54882812 C-316.47006542 399.5536202 -317.63837502 400.56011798 -318.80517578 401.56835938 C-321.67100142 404.03792469 -324.5589294 406.46196276 -327.5234375 408.8125 C-334.49786937 414.39066501 -339.94820568 419.89641136 -344 428 C-344.35707031 428.71414063 -344.71414063 429.42828125 -345.08203125 430.1640625 C-348.26623469 437.92828458 -347.74993771 447.19024909 -346.48046875 455.33203125 C-345.16627452 458.38583436 -345.16627452 458.38583436 -341.38671875 459.32421875 C-339.93034019 459.58469591 -338.46718747 459.8096115 -337 460 C-336.0092749 460.14042725 -336.0092749 460.14042725 -334.99853516 460.28369141 C-298.31852336 464.65488452 -261.93709 447.69495929 -233.6875 425.5 C-231.43690958 423.69174465 -229.21421522 421.85253842 -227 420 C-226.43506836 419.53126465 -225.87013672 419.0625293 -225.28808594 418.57958984 C-208.13215904 404.29909295 -192.09701748 389.0262251 -178.1171875 371.58984375 C-175.23632851 368.06584096 -172.19041165 364.70718779 -169.125 361.34375 C-167.17505276 359.19307289 -165.26973871 357.01175029 -163.375 354.8125 C-160.08240406 351.03211207 -156.58225446 347.50419081 -153 344 C-152.195625 343.195625 -151.39125 342.39125 -150.5625 341.5625 C-149.716875 340.716875 -148.87125 339.87125 -148 339 C-147.43925781 338.41605469 -146.87851563 337.83210938 -146.30078125 337.23046875 C-134.4116749 325.00374072 -120.16838518 314.7246534 -106.0625 305.1875 C-105.475896 304.7862793 -104.88929199 304.38505859 -104.28491211 303.97167969 C-100.28869849 301.31200098 -96.19596178 299.0385184 -91.921875 296.8515625 C-76.17604927 288.55996501 -68.9552911 280.90878605 -62.11425781 264.53125 C-59.78111364 259.23106622 -56.41794927 254.65452441 -53 250 C-52.28328125 249.01257813 -51.5665625 248.02515625 -50.828125 247.0078125 C-39.73842081 231.9793513 -27.63598564 216.76014285 -13 205 C-11.90332936 204.09152773 -10.80701038 203.18263088 -9.7109375 202.2734375 C2.58689105 192.16188959 15.50360891 183.59111995 29.44140625 175.91015625 C30.3387146 175.41056396 30.3387146 175.41056396 31.25415039 174.90087891 C33 174 33 174 36.34375 172.71484375 C39.32936081 171.16941726 39.32936081 171.16941726 40.21484375 167.59375 C40.47272277 166.23227585 40.71275444 164.86733423 40.9375 163.5 C43.82926374 149.92943118 50.84236773 142.52277773 61.83886719 134.56542969 C64.28431105 132.79405756 66.70886738 130.9959831 69.1328125 129.1953125 C73.74116152 125.77752489 78.36531439 122.38196741 83 119 C75.63821146 104.59063519 66.0392517 91.64323378 56 79 C54.89205078 77.60007813 54.89205078 77.60007813 53.76171875 76.171875 C44.98029081 65.25358093 35.35606968 55.25362558 25.5 45.3125 C24.63407227 44.43352051 23.76814453 43.55454102 22.87597656 42.64892578 C16.89878431 36.66385992 10.63017016 31.24719377 4 26 C2.65613512 24.91680918 1.31237119 23.83349309 -0.03125 22.75 C-1.18668113 21.83230138 -2.34290083 20.91559453 -3.5 20 C-4.09296875 19.52433594 -4.6859375 19.04867188 -5.296875 18.55859375 C-14.39921713 11.36282328 -22.99219605 12.47931529 -31.3125 20.125 Z M-195 79 C-196.22287086 83.00871058 -196.42867979 87.12359527 -196.75390625 91.28125 C-196.81907944 92.09057983 -196.88425262 92.89990967 -196.95140076 93.73376465 C-197.08838008 95.44834976 -197.22359665 97.16307648 -197.35717773 98.87792969 C-197.55963453 101.46340648 -197.77065206 104.04808401 -197.98242188 106.6328125 C-198.68648925 115.43732011 -199.23037429 124.15896943 -199 133 C-198.01 132.13375 -197.02 131.2675 -196 130.375 C-194.66965696 129.24646548 -193.33620159 128.12159177 -192 127 C-191.39800781 126.48566406 -190.79601562 125.97132813 -190.17578125 125.44140625 C-178.89941567 116.33993717 -165.2192409 113.25049182 -151 114 C-149.6227803 114.14720283 -148.24726377 114.31213056 -146.875 114.5 C-142.54438683 115.0587888 -138.3569013 115.09076878 -134 115 C-138.03547164 102.60968256 -144.50071791 89.12138282 -156 82 C-164.89170318 77.87286681 -172.83883309 75.81677196 -182.5625 75.75 C-183.31724609 75.729375 -184.07199219 75.70875 -184.84960938 75.6875 C-189.13555468 75.65729069 -192.06568019 75.6848906 -195 79 Z M-184.390625 143.8671875 C-187.62320829 148.15114496 -190.17170291 152.95743868 -192 158 C-191.505 159.485 -191.505 159.485 -191 161 C-190.07058594 160.71125 -189.14117187 160.4225 -188.18359375 160.125 C-186.94738281 159.75375 -185.71117187 159.3825 -184.4375 159 C-183.21933594 158.62875 -182.00117188 158.2575 -180.74609375 157.875 C-176.18920986 156.81061836 -171.98849862 156.11040851 -167.625 158.0625 C-165.18918984 160.96673519 -165.06449009 163.25957491 -165 167 C-166.4994272 170.65415963 -167.51318011 171.78336816 -171.16015625 173.40625 C-172.45598044 173.78807789 -173.75728902 174.15160774 -175.0625 174.5 C-175.75915771 174.71172852 -176.45581543 174.92345703 -177.17358398 175.14160156 C-181.03136687 176.28990912 -184.84063779 177.17578841 -188.8125 177.828125 C-197.02594984 179.08634914 -197.02594984 179.08634914 -203.46923828 183.83496094 C-206.57264001 189.31271916 -209 195.66446377 -209 202 C-206.39546825 201.35561067 -203.7913709 200.7095496 -201.1875 200.0625 C-200.08051758 199.78889648 -200.08051758 199.78889648 -198.95117188 199.50976562 C-195.92939016 198.7577385 -192.95543282 197.98514427 -190 197 C-187.84375 196.796875 -187.84375 196.796875 -185.5 196.75 C-184.7265625 196.72421875 -183.953125 196.6984375 -183.15625 196.671875 C-180.44489565 197.0844724 -179.62593534 197.82374808 -178 200 C-176.61837931 205.8453183 -176.61837931 205.8453183 -177.69262695 209.09570312 C-181.33892589 214.40683883 -191.09699337 215.31602393 -196.98828125 216.71875 C-198.18904297 217.01265625 -199.38980469 217.3065625 -200.62695312 217.609375 C-203.09553694 218.20591672 -205.57263799 218.76819838 -208.05664062 219.296875 C-215.00827423 221.03528394 -215.00827423 221.03528394 -220.11865234 225.78125 C-221.65320048 228.81594562 -222.88486324 231.79010336 -224 235 C-224.37680908 235.88751953 -224.75361816 236.77503906 -225.1418457 237.68945312 C-226.17408456 240.05792207 -226.17408456 240.05792207 -226 243 C-223.56210167 242.39740781 -221.12471419 241.79284792 -218.6875 241.1875 C-217.95998535 241.00807861 -217.2324707 240.82865723 -216.48291016 240.64379883 C-212.24551331 239.59075944 -208.05943742 238.43762238 -203.875 237.1875 C-199.92293204 236.10157142 -196.98224291 235.60621498 -193 237 C-190.11580764 238.79018836 -189.983476 240.06990924 -189.1875 243.4375 C-188.99694775 247.05799271 -188.94803932 248.14585638 -191 251 C-193.4921875 252.203125 -193.4921875 252.203125 -196.875 253.25 C-197.50051758 253.44835449 -198.12603516 253.64670898 -198.77050781 253.85107422 C-203.52471976 255.32920993 -208.32180085 256.6550245 -213.1171875 257.9921875 C-214.99881592 258.5195752 -214.99881592 258.5195752 -216.91845703 259.05761719 C-219.45551125 259.76438417 -221.99555632 260.46050879 -224.53857422 261.14550781 C-225.71693848 261.47131836 -226.89530273 261.79712891 -228.109375 262.1328125 C-229.70217285 262.56424561 -229.70217285 262.56424561 -231.32714844 263.00439453 C-234.75044853 264.27953317 -236.22961899 265.62924142 -237.99902344 268.77758789 C-238.92423235 270.86928467 -239.84700672 272.96108972 -240.75 275.0625 C-241.07871094 275.79533203 -241.40742188 276.52816406 -241.74609375 277.28320312 C-242.56358346 279.16135987 -243.28925744 281.07890468 -244 283 C-243.505 283.99 -243.505 283.99 -243 285 C-242.1028125 284.72212646 -241.205625 284.44425293 -240.28125 284.15795898 C-236.92270256 283.12597763 -233.56046782 282.10833838 -230.19482422 281.09985352 C-228.74422945 280.66209338 -227.29528419 280.21882542 -225.84814453 279.76977539 C-223.75712138 279.12200495 -221.66079385 278.49485219 -219.5625 277.87109375 C-217.67724609 277.29766235 -217.67724609 277.29766235 -215.75390625 276.71264648 C-211.30359358 275.86779329 -208.41683933 276.05180699 -204 277 C-201.51972711 280.23187074 -200.98291841 282.12883906 -201.0625 286.1875 C-202.17398131 289.52194393 -203.08957478 290.14632717 -206 292 C-208.16920471 292.83410645 -208.16920471 292.83410645 -210.53735352 293.48632812 C-211.87377647 293.86186829 -211.87377647 293.86186829 -213.23719788 294.24499512 C-214.19146164 294.50445923 -215.1457254 294.76392334 -216.12890625 295.03125 C-218.15299918 295.6002448 -220.17708759 296.1692557 -222.20117188 296.73828125 C-225.38915525 297.62297064 -228.57804956 298.50429043 -231.76733398 299.38427734 C-234.84853271 300.23762004 -237.92624663 301.10274576 -241.00390625 301.96875 C-241.96019424 302.22821411 -242.91648224 302.48767822 -243.90174866 302.75500488 C-245.23344337 303.13054504 -245.23344337 303.13054504 -246.59204102 303.51367188 C-247.76308128 303.83652161 -247.76308128 303.83652161 -248.95777893 304.16589355 C-253.98208519 306.21797611 -255.40118494 310.68836877 -257.390625 315.40625 C-257.69949646 316.12735962 -258.00836792 316.84846924 -258.32659912 317.59143066 C-258.97564515 319.11293712 -259.62093114 320.63605232 -260.26269531 322.16064453 C-261.2486224 324.49673586 -262.25240735 326.82458022 -263.2578125 329.15234375 C-263.88651191 330.63234772 -264.51415277 332.11280191 -265.140625 333.59375 C-265.44260803 334.2906897 -265.74459106 334.98762939 -266.0557251 335.70568848 C-267.82182417 339.75271803 -267.82182417 339.75271803 -267 344 C-265.48490149 343.33131462 -263.96980423 342.66262641 -262.45471191 341.993927 C-261.08936793 341.39140988 -259.72396902 340.78901725 -258.35852051 340.18673706 C-254.53602305 338.50055197 -250.71439306 336.8124464 -246.89428711 335.12084961 C-239.8014487 331.98255145 -232.70524033 328.8592261 -225.5625 325.8359375 C-224.45447021 325.36260986 -223.34644043 324.88928223 -222.20483398 324.40161133 C-220.1857015 323.54115436 -218.16207797 322.69112 -216.13305664 321.85424805 C-200.4142053 315.11562925 -191.0033656 305.34347081 -184 290 C-182.40511101 285.98697125 -181.00587698 281.92298496 -179.63671875 277.828125 C-179.24763336 276.68856857 -178.85854797 275.54901215 -178.45767212 274.37492371 C-177.41096375 271.30619986 -176.37139894 268.23516856 -175.33456802 265.16309738 C-173.56461884 259.9301311 -171.77222566 254.70476147 -169.9847393 249.47776604 C-169.30358453 247.48505452 -168.62342394 245.49200564 -167.94337463 243.49891663 C-163.8272343 231.44481642 -159.58733924 219.43612182 -155.3125 207.4375 C-149.68843678 191.62596839 -144.10789498 175.79993618 -138.59432983 159.94949341 C-137.82770614 157.74637299 -137.05999863 155.54362938 -136.29116821 153.34127808 C-135.23132418 150.30412482 -134.17557115 147.26558249 -133.12109375 144.2265625 C-132.80326935 143.31762741 -132.48544495 142.40869232 -132.1579895 141.47221375 C-131.87180756 140.64429825 -131.58562561 139.81638275 -131.29077148 138.96337891 C-131.04004379 138.24211823 -130.7893161 137.52085754 -130.5309906 136.77774048 C-129.90460174 134.989834 -129.90460174 134.989834 -130 133 C-133.6870516 132.6615815 -137.37470259 132.33018392 -141.0625 132 C-142.10083984 131.90460938 -143.13917969 131.80921875 -144.20898438 131.7109375 C-160.14572641 130.29433821 -172.84815522 131.61018387 -184.390625 143.8671875 Z M87.09765625 137.78125 C86.29408691 138.37196289 85.49051758 138.96267578 84.66259766 139.57128906 C81.20317202 142.13743578 77.7489069 144.71035702 74.30029297 147.29101562 C72.44482866 148.66951809 70.57680041 150.02249235 68.69140625 151.359375 C63.00040886 155.55182969 58.74817552 159.97969517 57 167 C55.97947171 175.7480379 58.18560007 182.44883309 61.5625 190.4375 C62.04050049 191.61022461 62.51850098 192.78294922 63.01098633 193.99121094 C64.34976491 197.27182007 65.7141431 200.54122953 67.0838623 203.809021 C68.40671232 206.97266836 69.71631538 210.14175978 71.02705383 213.31044006 C74.98873532 222.88595709 78.98426685 232.44703967 83 242 C89.34658213 237.32864783 95.23499649 232.37697443 101 227 C101.680625 226.37351562 102.36125 225.74703125 103.0625 225.1015625 C114.2337182 214.42584188 128.32487589 197.84463537 129.5 181.875 C128.89518383 177.18767466 127.48069237 174.98665862 124 172 C121.26443555 169.9472729 118.48572945 167.96339292 115.69921875 165.98046875 C105.34579364 158.38396147 97.14777934 146.69949849 92 135 C90.100625 135 88.56369843 136.70133328 87.09765625 137.78125 Z M36.8046875 191.44921875 C35.48700483 192.18147237 34.1776125 192.92876179 32.875 193.6875 C32.17068848 194.09250732 31.46637695 194.49751465 30.74072266 194.91479492 C5.2848804 209.84795145 -17.64585961 230.10661831 -35 254 C-35.74121094 254.99644531 -36.48242188 255.99289062 -37.24609375 257.01953125 C-57.50050241 285.14463704 -77 324.70179208 -77 360 C-74.13746643 358.65283182 -71.65713196 357.12226944 -69.12109375 355.234375 C-68.37472656 354.68136719 -67.62835938 354.12835938 -66.859375 353.55859375 C-66.06015625 352.96175781 -65.2609375 352.36492187 -64.4375 351.75 C-62.71750821 350.47387706 -60.99745442 349.19783769 -59.27734375 347.921875 C-58.39933105 347.26896484 -57.52131836 346.61605469 -56.61669922 345.94335938 C-52.58658855 342.95029342 -48.54307572 339.97551492 -44.5 337 C-42.91659292 335.83343343 -41.33325981 334.66676644 -39.75 333.5 C-30.25 326.5 -30.25 326.5 -27.87426758 324.74951172 C-26.29331017 323.58456151 -24.71241808 322.41952266 -23.1315918 321.25439453 C-19.13744172 318.3107302 -15.1421157 315.36868654 -11.14453125 312.4296875 C-3.73980537 306.98363105 3.65424366 301.52542234 11 296 C19.13818919 289.87851567 27.33677361 283.84046465 35.54150391 277.80859375 C38.04341172 275.96806415 40.54348032 274.12506362 43.04296875 272.28125 C51.34190467 266.15958912 59.64527515 260.04544135 68 254 C67.29455458 249.23309523 65.52298524 245.06488904 63.68359375 240.6484375 C63.18147118 239.42817368 63.18147118 239.42817368 62.66920471 238.18325806 C61.59617827 235.57874591 60.51686845 232.9768893 59.4375 230.375 C58.73853479 228.67985135 58.03996359 226.98454018 57.34179688 225.2890625 C55.94627911 221.9026972 54.54222572 218.52004845 53.13232422 215.13964844 C51.66173457 211.61067346 50.21981354 208.07148663 48.79345703 204.52441406 C48.08243898 202.77926338 47.3713416 201.03414501 46.66015625 199.2890625 C46.17451454 198.06055069 46.17451454 198.06055069 45.67906189 196.80722046 C44.86873606 194.83543248 43.94364849 192.9115709 43 191 C39.92522797 189.59738533 39.92522797 189.59738533 36.8046875 191.44921875 Z M-86 313 C-111.14597223 329.39603997 -135.48440859 347.98801379 -155 371 C-155.88918077 372.03788221 -156.77851263 373.075635 -157.66796875 374.11328125 C-161.92223635 379.09752739 -166.10409598 384.12435572 -170.1875 389.25 C-183.68511345 405.78457647 -199.18056834 420.87100215 -216 434 C-216.83724609 434.66201416 -216.83724609 434.66201416 -217.69140625 435.33740234 C-251.70675788 462.12541009 -288.4131166 478.45508347 -332 478 C-329.44204551 483.26112036 -326.95632684 487.11476193 -321.33081055 489.39135742 C-316.0949903 490.75858272 -310.62324595 490.43524129 -305.25 490.375 C-303.95320313 490.36484863 -302.65640625 490.35469727 -301.3203125 490.34423828 C-290.96395672 490.17823805 -281.08554036 489.35949069 -271 487 C-270.17129395 486.80664062 -269.34258789 486.61328125 -268.48876953 486.4140625 C-241.87598095 479.96127036 -220.09247473 467.13071952 -198.43945312 450.83056641 C-194.47999372 447.8593868 -190.48884061 444.93154268 -186.5 442 C-184.91650705 440.83354998 -183.33317385 439.66688307 -181.75 438.5 C-172.25 431.5 -172.25 431.5 -169.87426758 429.74951172 C-168.29331017 428.58456151 -166.71241808 427.41952266 -165.1315918 426.25439453 C-161.13744172 423.3107302 -157.1421157 420.36868654 -153.14453125 417.4296875 C-145.09285972 411.50781296 -137.06175721 405.56150498 -129.07543945 399.55175781 C-122.96246198 394.95765132 -116.80705175 390.42188877 -110.64453125 385.89453125 C-109.14875202 384.79522362 -107.65936668 383.68715478 -106.17700195 382.56982422 C-104 381 -104 381 -101.71948242 379.65283203 C-98.50870556 377.65253425 -96.42038952 376.23531374 -95.17431641 372.57373047 C-94.70587235 369.58208828 -94.47612353 366.64854896 -94.3125 363.625 C-94.11965018 361.38592778 -93.91757211 359.14763429 -93.70703125 356.91015625 C-93.60213379 355.76820801 -93.49723633 354.62625977 -93.38916016 353.44970703 C-92.76481309 347.91518755 -91.66810192 342.5044908 -90.5 337.0625 C-90.29802002 336.09973145 -90.09604004 335.13696289 -89.88793945 334.14501953 C-88.70277996 328.68040888 -87.25725039 323.39146357 -85.47070312 318.09155273 C-84.77129106 315.82478869 -84.77129106 315.82478869 -86 313 Z " fill="#8F8F8F" transform="translate(365,4)"/>
<path d="M0 0 C3.05865605 1.62421334 3.86750971 2.61685242 5.01171875 5.92578125 C5.23472656 7.04339844 5.45773437 8.16101563 5.6875 9.3125 C5.91824219 10.42238281 6.14898437 11.53226562 6.38671875 12.67578125 C8.77045496 25.59654252 8.77045496 25.59654252 8 31 C6.12379387 33.50160818 4.76108697 34.61945652 2 36 C-1.63618935 36.40402104 -3.45487494 36.34121704 -6.58984375 34.37890625 C-9.51339325 31.49326339 -9.98548684 29.62470907 -10.75 25.625 C-10.97171875 24.52414062 -11.1934375 23.42328125 -11.421875 22.2890625 C-14.15601504 6.73402256 -14.15601504 6.73402256 -11 2 C-6.86334406 -0.75777063 -4.91307062 -0.62388198 0 0 Z " fill="#8F8F8F" transform="translate(359,256)"/>
<path d="M0 0 C6.58791636 5.29403773 6.97677651 12.11102502 8 20 C9.07128842 30.57161543 9.07128842 30.57161543 5.9375 34.75 C2.26549653 36.31255467 -0.04336745 36.56523322 -4 36 C-6.8788808 34.40742764 -8.59995828 33.05029496 -9.79003906 29.92578125 C-10.43319306 27.37794166 -10.92589525 24.83895677 -11.375 22.25 C-11.55160156 21.38117188 -11.72820312 20.51234375 -11.91015625 19.6171875 C-12.94568005 14.09991671 -13.15118231 9.51097913 -12 4 C-8.45556795 -0.16992006 -5.34386598 -0.8588356 0 0 Z " fill="#8F8F8F" transform="translate(392,231)"/>
</svg>
