<?xml version="1.0" encoding="UTF-8"?>
<svg version="1.1" xmlns="http://www.w3.org/2000/svg" width="512" height="512">
<path d="M0 0 C1.16651596 0.29186691 1.16651596 0.29186691 2.3565979 0.58963013 C54.15804191 13.64403848 109.158077 32.99880346 148.625 70.1875 C149.31207031 70.81011719 149.99914062 71.43273437 150.70703125 72.07421875 C165.24328991 85.75034376 172.95877833 102.896348 174.95361328 122.50610352 C175.07094818 123.61459152 175.18828308 124.72307953 175.30917358 125.86515808 C175.69381057 129.5149813 176.0699197 133.1656215 176.4453125 136.81640625 C176.71121314 139.36981616 176.97740218 141.92319604 177.24386597 144.47654724 C177.80074612 149.82650016 178.35333723 155.17687204 178.90283203 160.52758789 C179.53430794 166.67562571 180.17556441 172.82258622 180.821787 178.96909004 C181.4470195 184.91959675 182.06352881 190.87097273 182.67669296 196.82273674 C182.936659 199.33652151 183.19897587 201.85006441 183.46377945 204.36334419 C187.20001958 239.91646998 187.20001958 239.91646998 183.8598175 244.73272705 C181.60404473 246.96376819 179.33725048 248.54372664 176.625 250.1875 C175.28574463 251.00226807 175.28574463 251.00226807 173.91943359 251.83349609 C171.0910992 253.44394444 168.22481497 254.92245521 165.3125 256.375 C164.29575195 256.89763428 163.27900391 257.42026855 162.23144531 257.95874023 C157.186592 260.52278976 152.19623422 262.83407598 146.875 264.75 C141.1188208 266.99082808 137.46617684 270.92017077 133.32421875 275.36328125 C129.11774251 279.76455813 124.38838374 283.4128604 119.625 287.1875 C118.48005053 288.13203312 117.33690863 289.0787604 116.1953125 290.02734375 C98.37403446 304.73545309 78.42438667 316.24136198 57.63183594 326.22119141 C56.33444105 326.84589809 55.0405269 327.47790912 53.75097656 328.11865234 C-28.12785637 368.63005609 -129.58717351 365.72679392 -243.28417969 339.20556641 C-260.90899055 332.85330377 -282.38679532 324.21409235 -291.65625 306.77734375 C-295.97505176 296.79782682 -296.14230654 288.4482731 -292.375 278.1875 C-286.25014365 266.25235696 -275.72384614 259.43471856 -264.8125 252.3125 C-263.51709193 251.45776765 -262.22216694 250.60230271 -260.92773438 249.74609375 C-257.72971252 247.63449569 -254.52215007 245.53801634 -251.30975342 243.44836426 C-249.32320679 242.15374676 -247.34149877 240.85192411 -245.35986328 239.54980469 C-244.08517445 238.71777176 -242.8102802 237.88605343 -241.53515625 237.0546875 C-240.94383408 236.66451447 -240.3525119 236.27434143 -239.74327087 235.87234497 C-235.60304259 233.1875 -235.60304259 233.1875 -233.375 233.1875 C-233.32615599 232.61239496 -233.27731197 232.03728992 -233.22698784 231.44475746 C-231.49814016 211.15802206 -229.53723929 190.89769056 -227.50647163 170.6391964 C-226.94304933 165.01849114 -226.38499776 159.39736395 -225.83935547 153.77490234 C-225.30421851 148.2617638 -224.75590558 142.75008007 -224.198452 137.23915482 C-223.99058972 135.16262465 -223.78723874 133.08563716 -223.58874893 131.00819016 C-221.42151266 108.39946189 -215.80213117 91.3257861 -200.375 74.1875 C-199.72402344 73.45402344 -199.07304687 72.72054687 -198.40234375 71.96484375 C-186.47921776 59.30657319 -171.39684796 49.72676106 -156.375 41.1875 C-155.22499512 40.52717773 -155.22499512 40.52717773 -154.05175781 39.85351562 C-117.82923742 19.2878907 -76.65496352 6.964634 -36.375 -2.8125 C-35.43897949 -3.05081543 -34.50295898 -3.28913086 -33.53857422 -3.53466797 C-22.06357198 -6.21432531 -11.15524382 -2.80985256 0 0 Z M-42.375 16.4375 C-43.06996582 16.6095697 -43.76493164 16.7816394 -44.48095703 16.95892334 C-56.28307621 19.90777632 -67.84638716 23.43652187 -79.375 27.3125 C-80.11137695 27.55971802 -80.84775391 27.80693604 -81.60644531 28.06164551 C-94.92478365 32.55397764 -108.31089881 37.13859247 -121.125 42.9375 C-121.85686523 43.26693604 -122.58873047 43.59637207 -123.34277344 43.93579102 C-154.13973447 57.94652329 -190.51849992 76.60235138 -203.375 110.1875 C-206.03062888 122.69953867 -206.6836004 135.85964508 -208.01171875 148.56640625 C-208.25786324 150.91096658 -208.50402338 153.25552527 -208.75019836 155.6000824 C-209.26234249 160.48553766 -209.77208117 165.37123765 -210.28051758 170.25708008 C-210.93265673 176.51886335 -211.59428627 182.77960614 -212.25809002 189.04016209 C-212.76840607 193.86856796 -213.27201175 198.69765655 -213.77375221 203.52696037 C-214.01489247 205.83690226 -214.25852633 208.14658525 -214.50470543 210.45599556 C-214.8470552 213.67382935 -215.17994506 216.89250829 -215.51049805 220.11157227 C-215.61380936 221.06277954 -215.71712067 222.01398682 -215.82356262 222.99401855 C-216.49847137 229.15022527 -216.49847137 229.15022527 -215.375 235.1875 C-213.74433025 236.72091922 -213.74433025 236.72091922 -211.5625 237.765625 C-210.74773193 238.1997168 -209.93296387 238.63380859 -209.09350586 239.08105469 C-208.19639893 239.52868164 -207.29929199 239.97630859 -206.375 240.4375 C-204.9684314 241.15147949 -204.9684314 241.15147949 -203.53344727 241.87988281 C-167.03099211 259.88932255 -125.56015881 266.51475664 -85.375 270.1875 C-84.25174316 270.29191406 -83.12848633 270.39632813 -81.97119141 270.50390625 C-27.10068219 275.32232529 29.31136733 273.43977968 83.625 264.1875 C83.00145664 239.9800769 81.53086564 215.81971321 80.09594727 191.6496582 C79.75389027 185.88637066 79.41823277 180.12273065 79.08435917 174.35896397 C78.82197813 169.84321419 78.55594984 165.32768452 78.288908 160.81220818 C78.16379496 158.6888699 78.03980362 156.56546516 77.91707039 154.44198799 C77.30184718 143.82864399 76.61018659 133.22618878 75.66577148 122.63647461 C75.59391412 121.77977204 75.52205675 120.92306948 75.44802189 120.04040623 C73.21678278 96.34477596 51.38895238 73.68320355 33.69140625 58.94140625 C31.56915622 57.14010141 29.53995319 55.25443116 27.51025391 53.35009766 C21.0820301 47.33753656 14.33092559 41.86160681 7.34667969 36.51074219 C5.70484139 35.2488642 4.07359864 33.97460772 2.4453125 32.6953125 C-3.75546267 27.85530594 -10.0571186 23.16259407 -16.4375 18.5625 C-17.16428955 18.02890869 -17.8910791 17.49531738 -18.63989258 16.94555664 C-19.6708606 16.21067017 -19.6708606 16.21067017 -20.72265625 15.4609375 C-21.63543335 14.80230713 -21.63543335 14.80230713 -22.56665039 14.13037109 C-28.16063204 11.21367646 -36.59846863 15.00066076 -42.375 16.4375 Z M19.625 24.1875 C23.17678435 27.83776266 26.89410177 31.18230529 30.8125 34.4375 C55.68326113 55.35376827 88.31856822 83.11676855 91.38464355 117.91079712 C91.45364868 118.79359344 91.52265381 119.67638977 91.59375 120.5859375 C91.67403442 121.5606601 91.75431885 122.53538269 91.83703613 123.53964233 C93.11753977 139.70409797 94.00858638 155.89958594 94.96356201 172.08575439 C95.1765698 175.68353243 95.39264342 179.28112323 95.60882568 182.8787117 C96.50934821 197.87369 97.4072367 212.86853339 98.19140625 227.87011719 C98.25900272 229.15597875 98.25900272 229.15597875 98.32796478 230.46781731 C98.54120079 234.53183779 98.75068503 238.5959864 98.95324707 242.66055298 C99.02796782 244.10622712 99.10279106 245.55189597 99.17773438 246.99755859 C99.24037476 248.24652924 99.30301514 249.49549988 99.36755371 250.78231812 C99.60860597 253.97065996 100.04346269 257.04525107 100.625 260.1875 C137.18728069 252.76459247 137.18728069 252.76459247 168.625 234.1875 C168.48378977 231.00148198 168.26039827 227.85210539 167.98828125 224.67578125 C167.89847488 223.59766678 167.80866852 222.51955231 167.71614075 221.4087677 C166.25208344 204.32618575 164.54508101 187.26441377 162.80843925 170.20774651 C162.24960429 164.71788228 161.69825748 159.22750065 161.16479492 153.73510742 C160.64089783 148.34232197 160.09857864 142.95168116 159.54332924 137.56203651 C159.33725893 135.5323151 159.13748143 133.50194341 158.94447899 131.47093773 C156.67181283 107.67125822 147.71336814 91.08281853 129.34765625 75.36328125 C101.34241451 52.98319567 68.15721787 39.20339795 34.34228516 28.08544922 C32.55655409 27.49533971 30.77476664 26.89313376 28.99755859 26.27783203 C28.19785645 26.00181152 27.3981543 25.72579102 26.57421875 25.44140625 C25.88030029 25.19849854 25.18638184 24.95559082 24.47143555 24.70532227 C22.46318549 24.05248672 22.46318549 24.05248672 19.625 24.1875 Z M-228.23999023 248.83984375 C-229.20207397 249.47599609 -229.20207397 249.47599609 -230.18359375 250.125 C-230.9206958 250.60122803 -231.65779785 251.07745605 -232.41723633 251.56811523 C-233.60289185 252.36971069 -233.60289185 252.36971069 -234.8125 253.1875 C-235.63709717 253.72769775 -236.46169434 254.26789551 -237.3112793 254.82446289 C-239.08119783 255.98775143 -240.84609481 257.15870852 -242.60644531 258.33642578 C-245.42215114 260.21902557 -248.25228149 262.07814323 -251.0859375 263.93359375 C-252.95388482 265.16290872 -254.82109079 266.39335104 -256.6875 267.625 C-257.56398193 268.20314453 -258.44046387 268.78128906 -259.34350586 269.37695312 C-270.24470872 276.53156258 -270.24470872 276.53156258 -277.375 287.1875 C-278.27499318 291.80485631 -277.91796777 295.10156446 -275.8125 299.3125 C-275.008125 300.26125 -274.20375 301.21 -273.375 302.1875 C-272.91222656 302.74050781 -272.44945312 303.29351562 -271.97265625 303.86328125 C-240.36442711 338.71734321 -164.85695818 339.36901674 -120.734375 341.87109375 C-41.08215062 345.6553291 38.44541384 327.09492042 102.625 278.1875 C99.8975312 276.8237656 98.48015806 277.44688639 95.5 278.04296875 C94.41904053 278.25139404 93.33808105 278.45981934 92.22436523 278.67456055 C91.03657471 278.90570557 89.84878418 279.13685059 88.625 279.375 C31.41044667 289.97742484 -28.51183364 291.4086148 -86.375 286.1875 C-87.06265442 286.1266925 -87.75030884 286.06588501 -88.45880127 286.00323486 C-133.94283053 281.95105208 -180.24496655 273.65202562 -220.51000977 251.20556641 C-221.43317993 250.70162354 -221.43317993 250.70162354 -222.375 250.1875 C-223.035 249.77419434 -223.695 249.36088867 -224.375 248.93505859 C-226.34755337 247.95471286 -226.34755337 247.95471286 -228.23999023 248.83984375 Z " fill="#8F8F8F" transform="translate(310.375,78.8125)"/>
</svg>
