<?xml version="1.0" encoding="UTF-8"?>
<svg version="1.1" xmlns="http://www.w3.org/2000/svg" width="64" height="64">
<path d="M0 0 C8.34468007 4.97590182 13.53387008 11.86345977 16.109375 21.2578125 C16.34654622 23.89427398 16.4894146 26.37525009 16.484375 29.0078125 C16.48566406 29.71083496 16.48695312 30.41385742 16.48828125 31.13818359 C16.38239352 36.38082931 15.28015456 40.44231427 13 45.1953125 C11.81643981 47.93618873 11.79966273 50.31554597 12.109375 53.2578125 C11.119375 53.5878125 10.129375 53.9178125 9.109375 54.2578125 C8.779375 55.2478125 8.449375 56.2378125 8.109375 57.2578125 C7.325625 57.1753125 6.541875 57.0928125 5.734375 57.0078125 C2.24112079 57.24872658 0.79054774 57.79167558 -2.265625 59.2578125 C-10.5736376 62.77177553 -20.98915726 62.70826948 -29.453125 59.6328125 C-38.02067899 55.52153659 -43.47272483 49.26438555 -47.00390625 40.4921875 C-48.01826619 36.79223141 -48.27383398 33.31723574 -48.265625 29.5078125 C-48.26546387 28.80841553 -48.26530273 28.10901855 -48.26513672 27.38842773 C-48.13690691 21.53102507 -47.02666373 16.3052325 -43.890625 11.2578125 C-43.230625 10.9278125 -42.570625 10.5978125 -41.890625 10.2578125 C-41.54 9.5359375 -41.189375 8.8140625 -40.828125 8.0703125 C-32.26781465 -4.35594446 -12.89853616 -6.18956601 0 0 Z " fill="#7E8386" transform="translate(47.890625,2.7421875)"/>
<path d="M0 0 C8.34468007 4.97590182 13.53387008 11.86345977 16.109375 21.2578125 C16.34654622 23.89427398 16.4894146 26.37525009 16.484375 29.0078125 C16.48566406 29.71083496 16.48695312 30.41385742 16.48828125 31.13818359 C16.38239352 36.38082931 15.28015456 40.44231427 13 45.1953125 C11.81643981 47.93618873 11.79966273 50.31554597 12.109375 53.2578125 C11.119375 53.5878125 10.129375 53.9178125 9.109375 54.2578125 C8.779375 55.2478125 8.449375 56.2378125 8.109375 57.2578125 C7.325625 57.1753125 6.541875 57.0928125 5.734375 57.0078125 C2.24112079 57.24872658 0.79054774 57.79167558 -2.265625 59.2578125 C-10.5736376 62.77177553 -20.98915726 62.70826948 -29.453125 59.6328125 C-38.02067899 55.52153659 -43.47272483 49.26438555 -47.00390625 40.4921875 C-48.01826619 36.79223141 -48.27383398 33.31723574 -48.265625 29.5078125 C-48.26546387 28.80841553 -48.26530273 28.10901855 -48.26513672 27.38842773 C-48.13690691 21.53102507 -47.02666373 16.3052325 -43.890625 11.2578125 C-43.230625 10.9278125 -42.570625 10.5978125 -41.890625 10.2578125 C-41.54 9.5359375 -41.189375 8.8140625 -40.828125 8.0703125 C-32.26781465 -4.35594446 -12.89853616 -6.18956601 0 0 Z M-24.890625 6.2578125 C-24.890625 6.9178125 -24.890625 7.5778125 -24.890625 8.2578125 C-23.570625 8.5878125 -22.250625 8.9178125 -20.890625 9.2578125 C-20.890625 11.5678125 -20.890625 13.8778125 -20.890625 16.2578125 C-23.530625 16.2578125 -26.170625 16.2578125 -28.890625 16.2578125 C-28.890625 15.5978125 -28.890625 14.9378125 -28.890625 14.2578125 C-29.550625 14.2578125 -30.210625 14.2578125 -30.890625 14.2578125 C-33.90875458 21.67738104 -34.48673361 28.26766435 -33.890625 36.2578125 C-33.560625 36.9178125 -33.230625 37.5778125 -32.890625 38.2578125 C-31.653125 38.0103125 -30.415625 37.7628125 -29.140625 37.5078125 C-25.95568505 37.11816559 -25.21234077 37.05674015 -22.390625 38.8203125 C-20.49456419 41.90141132 -20.43588573 43.69568822 -20.890625 47.2578125 C-21.550625 48.2478125 -22.210625 49.2378125 -22.890625 50.2578125 C-23.03150499 52.28677088 -23.03150499 52.28677088 -21.890625 54.2578125 C-17.82214177 57.9194474 -14.52326797 58.88036501 -9.21484375 58.6640625 C-5.29418014 57.97877004 -2.31578385 56.2506322 1.109375 54.2578125 C0.779375 52.6078125 0.449375 50.9578125 0.109375 49.2578125 C1.429375 48.5978125 2.749375 47.9378125 4.109375 47.2578125 C4.109375 46.5978125 4.109375 45.9378125 4.109375 45.2578125 C5.759375 45.5878125 7.409375 45.9178125 9.109375 46.2578125 C9.75772154 44.9882595 10.40295315 43.71711544 11.046875 42.4453125 C11.40652344 41.73761719 11.76617187 41.02992187 12.13671875 40.30078125 C15.31352327 33.62821592 15.3029738 25.95312391 13.05078125 18.98046875 C9.24534225 10.80238439 4.47699946 5.71956447 -3.328125 1.3203125 C-12.07549552 -1.28855239 -18.02788778 -0.00463802 -24.890625 6.2578125 Z " fill="#5F6669" transform="translate(47.890625,2.7421875)"/>
<path d="M0 0 C6.17412421 4.82848176 9.95600332 11.16705864 12.015625 18.6796875 C12.25279622 21.31614898 12.3956646 23.79712509 12.390625 26.4296875 C12.39191406 27.13270996 12.39320312 27.83573242 12.39453125 28.56005859 C12.28864352 33.80270431 11.18640456 37.86418927 8.90625 42.6171875 C7.72268981 45.35806373 7.70591273 47.73742097 8.015625 50.6796875 C7.025625 51.0096875 6.035625 51.3396875 5.015625 51.6796875 C4.685625 52.6696875 4.355625 53.6596875 4.015625 54.6796875 C3.231875 54.5971875 2.448125 54.5146875 1.640625 54.4296875 C-1.85262921 54.67060158 -3.30320226 55.21355058 -6.359375 56.6796875 C-14.6673876 60.19365053 -25.08290726 60.13014448 -33.546875 57.0546875 C-42.11442899 52.94341159 -47.56647483 46.68626055 -51.09765625 37.9140625 C-52.11207717 34.21388398 -52.36667293 30.73920925 -52.359375 26.9296875 C-52.36066406 26.23101563 -52.36195312 25.53234375 -52.36328125 24.8125 C-52.24226401 18.84965077 -50.82394494 13.95317454 -47.984375 8.6796875 C-46.994375 8.6796875 -46.004375 8.6796875 -44.984375 8.6796875 C-46.81729271 14.30936331 -46.81729271 14.30936331 -48.03125 17 C-50.73642118 24.60552225 -49.60293777 33.27357788 -46.2265625 40.46875 C-41.7506911 48.43523809 -35.72193463 52.80107356 -26.984375 55.6796875 C-18.52642774 56.89060673 -11.36629058 56.05415599 -3.984375 51.6796875 C-4.066875 50.9371875 -4.149375 50.1946875 -4.234375 49.4296875 C-3.984375 46.6796875 -3.984375 46.6796875 -2.296875 44.3671875 C0.44603498 42.36560454 1.71375779 42.5318427 5.015625 42.6796875 C8.84746155 35.10154647 10.32126023 28.14139977 9.015625 19.6796875 C6.48406928 12.15658374 2.82032665 5.92559638 -3.984375 1.6796875 C-4.62890625 1.26976562 -5.2734375 0.85984375 -5.9375 0.4375 C-13.18190653 -3.45301462 -21.7537144 -3.69153133 -29.63671875 -1.625 C-34.32000052 0.28033515 -37.93228162 3.0294612 -41.57421875 6.5078125 C-42.984375 7.6796875 -42.984375 7.6796875 -44.984375 7.6796875 C-44.59984261 5.17210307 -44.21654968 3.9164941 -42.41796875 2.08203125 C-29.73269547 -7.22712233 -13.54191799 -9.01017378 0 0 Z " fill="#040505" transform="translate(51.984375,5.3203125)"/>
<path d="M0 0 C0.99 0 1.98 0 3 0 C1.16708229 5.62967581 1.16708229 5.62967581 -0.046875 8.3203125 C-2.75204618 15.92583475 -1.61856277 24.59389038 1.7578125 31.7890625 C6.20308881 39.70109519 12.24442397 44.29178968 21 47 C26.33068583 47.63953443 31.65799534 47.36607646 37 47 C36.67 47.99 36.34 48.98 36 50 C24.73672202 50.50307445 15.47846217 50.51600887 6.1875 43.25 C0.1297661 37.59230513 -3.59107368 30.54573908 -4.3359375 22.265625 C-4.36503073 20.9273362 -4.37756437 19.58860254 -4.375 18.25 C-4.37628906 17.55132813 -4.37757813 16.85265625 -4.37890625 16.1328125 C-4.25788901 10.16996327 -2.83956994 5.27348704 0 0 Z " fill="#040505" transform="translate(4,14)"/>
<path d="M0 0 C1.14274621 3.42823863 0.83857544 4.11282015 -0.375 7.375 C-1.51782319 10.57386127 -2.45720875 13.63469423 -3 17 C-3.66 17 -4.32 17 -5 17 C-5.33 17.99 -5.66 18.98 -6 20 C-6.86625 19.938125 -7.7325 19.87625 -8.625 19.8125 C-12.07752171 19.78035516 -12.07752171 19.78035516 -15.125 21.5625 C-18 23 -18 23 -20.375 22.6875 C-20.91125 22.460625 -21.4475 22.23375 -22 22 C-20.37633534 18.75267068 -17.24612161 18.29844864 -14 17 C-14.0825 16.2575 -14.165 15.515 -14.25 14.75 C-14 12 -14 12 -12.3125 9.6875 C-9.60883753 7.71455712 -8.27034459 7.63662838 -5 8 C-4.54625 6.865625 -4.0925 5.73125 -3.625 4.5625 C-2 1 -2 1 0 0 Z " fill="#0C0B09" transform="translate(62,40)"/>
<path d="M0 0 C2.30163882 3.45245824 2.34490322 4.94738713 2 9 C0 11 0 11 -3.4375 11.3125 C-7 11 -7 11 -8.9375 9.875 C-10.50422245 7.11019567 -10.38976435 5.11811483 -10 2 C-7.65569181 -2.27491494 -4.20074737 -1.06928115 0 0 Z " fill="#61686B" transform="translate(54,33)"/>
<path d="M0 0 C0.33 0.66 0.66 1.32 1 2 C2.66500443 2.34153937 4.33178677 2.67449498 6 3 C8 5 8 5 8.25 7.9375 C8 11 8 11 6 14 C5.01 14 4.02 14 3 14 C0.08398688 10.77155691 -2.06186554 7.4538402 -1.875 3.0625 C-1 1 -1 1 0 0 Z " fill="#646B6E" transform="translate(18,39)"/>
<path d="M0 0 C0.49628906 0.42152344 0.99257813 0.84304687 1.50390625 1.27734375 C6.07011394 4.9597693 9.11024529 6.75459355 15 7 C15 7.33 15 7.66 15 8 C5.66348234 8.6053938 -1.03813293 8.13668843 -9 3 C-9 2.34 -9 1.68 -9 1 C-7.88625 1.020625 -6.7725 1.04125 -5.625 1.0625 C-2.16784079 1.26380718 -2.16784079 1.26380718 0 0 Z " fill="#626A6D" transform="translate(24,54)"/>
<path d="M0 0 C1.65 0 3.3 0 5 0 C5 0.66 5 1.32 5 2 C5.66 2 6.32 2 7 2 C7 3.65 7 5.3 7 7 C6.34 7 5.68 7 5 7 C5 7.66 5 8.32 5 9 C3.35 9 1.7 9 0 9 C0 8.34 0 7.68 0 7 C-0.66 7 -1.32 7 -2 7 C-2 5.35 -2 3.7 -2 2 C-1.34 2 -0.68 2 0 2 C0 1.34 0 0.68 0 0 Z " fill="#201A0E" transform="translate(2,0)"/>
<path d="M0 0 C5.42465753 0.48219178 5.42465753 0.48219178 7.875 2.6875 C9.36633241 5.75301662 9.48231822 7.62377244 9 11 C6.92170296 14.74093467 5.67458281 15.79149259 1.5625 17.0625 C-2 17 -2 17 -4.9375 15.1875 C-7 13 -7 13 -7 11 C-3.125 12.875 -3.125 12.875 -2 14 C1.51745287 13.74751373 1.51745287 13.74751373 5 13 C6.38125018 10.23749964 6.19079306 8.05268901 6 5 C3.8614515 2.8614515 2.86724686 2.57344937 0 2 C0 1.34 0 0.68 0 0 Z " fill="#080809" transform="translate(19,39)"/>
<path d="M0 0 C0.66 0 1.32 0 2 0 C4 4 6 8 8 12 C5.875 12.4375 5.875 12.4375 3 12 C0.723853 9.87310854 -1.1458722 7.4976567 -3 5 C-1.625 2.5 -1.625 2.5 0 0 Z " fill="#485154" transform="translate(14,42)"/>
<path d="M0 0 C0.598125 0.226875 1.19625 0.45375 1.8125 0.6875 C-0.1675 1.6775 -0.1675 1.6775 -2.1875 2.6875 C-2.1875 4.9975 -2.1875 7.3075 -2.1875 9.6875 C2.2675 9.1925 2.2675 9.1925 6.8125 8.6875 C5.8225 10.1725 5.8225 10.1725 4.8125 11.6875 C1.39048172 12.06081109 -1.08935629 12.32513183 -4.125 10.5625 C-5.69172245 7.79769567 -5.57726435 5.80561483 -5.1875 2.6875 C-3.56506312 0.17272283 -3.00892892 -0.42984699 0 0 Z " fill="#0A0B0B" transform="translate(49.1875,32.3125)"/>
<path d="M0 0 C0 1.32 0 2.64 0 4 C-1.98 4 -3.96 4 -6 4 C-6.33 2.68 -6.66 1.36 -7 0 C-3.86650268 -1.04449911 -3.01031744 -0.93423645 0 0 Z " fill="#F58D9C" transform="translate(45,27)"/>
<path d="M0 0 C2.00720923 0.28674418 4.0085944 0.61866701 6 1 C5.67 2.32 5.34 3.64 5 5 C3.35 5 1.7 5 0 5 C-0.5625 3.0625 -0.5625 3.0625 -1 1 C-0.67 0.67 -0.34 0.34 0 0 Z " fill="#F68D9C" transform="translate(20,26)"/>
<path d="M0 0 C0.33 0.66 0.66 1.32 1 2 C3.02463255 2.65213292 3.02463255 2.65213292 5 3 C4.67 4.32 4.34 5.64 4 7 C2.35 6.67 0.7 6.34 -1 6 C-0.67 4.02 -0.34 2.04 0 0 Z " fill="#5B6265" transform="translate(21,11)"/>
<path d="M0 0 C0 0.99 0 1.98 0 3 C0.66 3 1.32 3 2 3 C2 3.66 2 4.32 2 5 C1.34 5 0.68 5 0 5 C0 5.66 0 6.32 0 7 C-2.475 6.01 -2.475 6.01 -5 5 C-5 3 -5 3 -3.625 1.375 C-2 0 -2 0 0 0 Z " fill="#DFB462" transform="translate(55,50)"/>
<path d="M0 0 C2.46800047 1.15173355 4.04783565 2.04783565 6 4 C7.31747324 4.69748583 8.64914193 5.36959957 10 6 C3.52443609 5.38909774 3.52443609 5.38909774 1.0625 3.5625 C0 2 0 2 0 0 Z " fill="#161819" transform="translate(12,50)"/>
<path d="M0 0 C2.875 0.3125 2.875 0.3125 6 1 C6.66 1.99 7.32 2.98 8 4 C4.79604584 4 2.90600261 3.25664978 0 2 C0 1.34 0 0.68 0 0 Z " fill="#111212" transform="translate(19,39)"/>
</svg>
