<?xml version="1.0" encoding="UTF-8"?>
<svg version="1.1" xmlns="http://www.w3.org/2000/svg" width="64" height="64">
<path d="M0 0 C2.875 0.8125 2.875 0.8125 4.875 2.8125 C6.68343663 2.95966542 8.49831566 3.0335887 10.3125 3.0625 C13.296875 3.26953125 13.296875 3.26953125 15.875 3.8125 C17.99009863 6.65277531 18.875 8.27973228 18.875 11.8125 C19.82375 12.121875 20.7725 12.43125 21.75 12.75 C24.875 13.8125 24.875 13.8125 26.875 14.8125 C27.23372093 17.55966664 27.31905709 20.2834277 27.43359375 23.05078125 C27.9293312 26.15243059 28.96410795 27.3930641 30.875 29.8125 C30.65462372 33.48543796 30.50533454 35.18216546 27.875 37.8125 C27.72783458 39.62093663 27.6539113 41.43581566 27.625 43.25 C27.41796875 46.234375 27.41796875 46.234375 26.875 48.8125 C24.03472469 50.92759863 22.40776772 51.8125 18.875 51.8125 C18.565625 52.76125 18.25625 53.71 17.9375 54.6875 C16.875 57.8125 16.875 57.8125 15.875 59.8125 C13.12783336 60.17122093 10.4040723 60.25655709 7.63671875 60.37109375 C4.53506941 60.8668312 3.2944359 61.90160795 0.875 63.8125 C-2.79793796 63.59212372 -4.49466546 63.44283454 -7.125 60.8125 C-8.93343663 60.66533458 -10.74831566 60.5914113 -12.5625 60.5625 C-15.546875 60.35546875 -15.546875 60.35546875 -18.125 59.8125 C-20.24009863 56.97222469 -21.125 55.34526772 -21.125 51.8125 C-22.07375 51.503125 -23.0225 51.19375 -24 50.875 C-27.125 49.8125 -27.125 49.8125 -29.125 48.8125 C-29.48372093 46.06533336 -29.56905709 43.3415723 -29.68359375 40.57421875 C-30.1793312 37.47256941 -31.21410795 36.2319359 -33.125 33.8125 C-32.90462372 30.13956204 -32.75533454 28.44283454 -30.125 25.8125 C-29.97783458 24.00406337 -29.9039113 22.18918434 -29.875 20.375 C-29.66796875 17.390625 -29.66796875 17.390625 -29.125 14.8125 C-26.28472469 12.69740137 -24.65776772 11.8125 -21.125 11.8125 C-20.815625 10.86375 -20.50625 9.915 -20.1875 8.9375 C-19.125 5.8125 -19.125 5.8125 -18.125 3.8125 C-15.37783336 3.45377907 -12.6540723 3.36844291 -9.88671875 3.25390625 C-5.67203553 2.5802723 -4.33915054 -0.26034903 0 0 Z " fill="#F7D33C" transform="translate(33.125,0.1875)"/>
<path d="M0 0 C1.32 0 2.64 0 4 0 C2.92953922 3.23139095 1.84070243 6.45279128 0.7109375 9.6640625 C-2.52824282 19.11216631 -5.59216555 28.73725913 -1.4375 38.4375 C1.42009249 43.33622999 5.6928958 46.23096527 11 48 C20.02101846 48.97449273 26.06420437 47.07744101 34 43 C37.61628694 41.52115418 41.29358516 40.23547161 45 39 C45 40.98 45 42.96 45 45 C39.25 48 39.25 48 37 48 C36.690625 48.94875 36.38125 49.8975 36.0625 50.875 C35 54 35 54 34 56 C31.25283336 56.35872093 28.5290723 56.44405709 25.76171875 56.55859375 C22.66006941 57.0543312 21.4194359 58.08910795 19 60 C15.32706204 59.77962372 13.63033454 59.63033454 11 57 C9.19156337 56.85283458 7.37668434 56.7789113 5.5625 56.75 C2.578125 56.54296875 2.578125 56.54296875 0 56 C-2.11509863 53.15972469 -3 51.53276772 -3 48 C-3.94875 47.690625 -4.8975 47.38125 -5.875 47.0625 C-9 46 -9 46 -11 45 C-11.35872093 42.25283336 -11.44405709 39.5290723 -11.55859375 36.76171875 C-12.0543312 33.66006941 -13.08910795 32.4194359 -15 30 C-14.77962372 26.32706204 -14.63033454 24.63033454 -12 22 C-11.85283458 20.19156337 -11.7789113 18.37668434 -11.75 16.5625 C-11.54296875 13.578125 -11.54296875 13.578125 -11 11 C-8.15972469 8.88490137 -6.53276772 8 -3 8 C-2.690625 7.05125 -2.38125 6.1025 -2.0625 5.125 C-1 2 -1 2 0 0 Z " fill="#F7951F" transform="translate(15,4)"/>
<path d="M0 0 C2.875 0.8125 2.875 0.8125 4.875 2.8125 C6.68343663 2.95966542 8.49831566 3.0335887 10.3125 3.0625 C13.296875 3.26953125 13.296875 3.26953125 15.875 3.8125 C17.99009863 6.65277531 18.875 8.27973228 18.875 11.8125 C19.82375 12.121875 20.7725 12.43125 21.75 12.75 C24.875 13.8125 24.875 13.8125 26.875 14.8125 C27.23372093 17.55966664 27.31905709 20.2834277 27.43359375 23.05078125 C27.9293312 26.15243059 28.96410795 27.3930641 30.875 29.8125 C30.65462372 33.48543796 30.50533454 35.18216546 27.875 37.8125 C27.813125 38.59625 27.75125 39.38 27.6875 40.1875 C26.875 42.8125 26.875 42.8125 23.8125 45 C19.96287317 46.97273408 16.0946647 47.92414954 11.875 48.8125 C12.29652344 48.20921875 12.71804687 47.6059375 13.15234375 46.984375 C13.70019531 46.18515625 14.24804688 45.3859375 14.8125 44.5625 C15.35777344 43.77359375 15.90304688 42.9846875 16.46484375 42.171875 C19.68771521 36.77959145 19.47697101 30.76215796 18.25 24.75 C15.90927322 19.74935643 12.67935181 16.14428348 8.25 12.875 C2.46878902 11.05498913 -3.84164676 10.42584111 -9.5390625 12.83203125 C-11.51818106 14.05878826 -13.31390137 15.3512727 -15.125 16.8125 C-16.45720668 17.81400044 -17.790263 18.8143743 -19.125 19.8125 C-17.11205872 7.82957897 -17.11205872 7.82957897 -14.125 3.8125 C-10.6875 3.125 -10.6875 3.125 -7.125 2.8125 C-6.444375 2.27625 -5.76375 1.74 -5.0625 1.1875 C-3.125 -0.1875 -3.125 -0.1875 0 0 Z " fill="#FAB03A" transform="translate(33.125,0.1875)"/>
<path d="M0 0 C0.33 0 0.66 0 1 0 C1.23074219 0.85722656 1.46148437 1.71445312 1.69921875 2.59765625 C4.49887305 12.41304504 6.98328723 18.84052454 16.0234375 24.00390625 C20.89416941 26.45852411 25.61092805 27.35331137 31 28 C28.33861783 30.91484713 26.36810053 31.87636425 22.36328125 32.23828125 C15.73835305 32.39945108 10.31565196 32.27383153 5 28 C0.09781065 22.668735 -2.14186188 18.44535474 -2.1875 11.125 C-2.20167969 10.09632812 -2.21585938 9.06765625 -2.23046875 8.0078125 C-1.99581369 4.94536512 -1.29184572 2.76751139 0 0 Z " fill="#F7B43D" transform="translate(13,21)"/>
<path d="M0 0 C3.96 0 7.92 0 12 0 C11.25 6.75 11.25 6.75 9 9 C6.0625 9.375 6.0625 9.375 3 9 C1.125 7.3125 1.125 7.3125 0 5 C0 3.35 0 1.7 0 0 Z " fill="#FAB43B" transform="translate(26,36)"/>
<path d="M0 0 C2.9375 0.9375 2.9375 0.9375 4.3125 3.5 C4.51875 4.304375 4.725 5.10875 4.9375 5.9375 C3.9475 5.9375 2.9575 5.9375 1.9375 5.9375 C1.9375 4.9475 1.9375 3.9575 1.9375 2.9375 C-1.75004757 3.43581724 -3.66740662 4.03817643 -6.0625 6.9375 C-6.25 4.5625 -6.25 4.5625 -6.0625 1.9375 C-3.0625 -0.0625 -3.0625 -0.0625 0 0 Z " fill="#775019" transform="translate(24.0625,23.0625)"/>
<path d="M0 0 C0.33 1.98 0.66 3.96 1 6 C0.4225 5.34 -0.155 4.68 -0.75 4 C-2.99653977 1.55709077 -2.99653977 1.55709077 -7 2 C-7.33 3.32 -7.66 4.64 -8 6 C-8.66 5.67 -9.32 5.34 -10 5 C-7.77318588 -1.20326792 -6.3484942 -1.24209669 0 0 Z " fill="#775019" transform="translate(45,24)"/>
<path d="M0 0 C2.00720923 0.28674418 4.0085944 0.61866701 6 1 C5.401875 1.268125 4.80375 1.53625 4.1875 1.8125 C2.02775192 2.98493467 0.64209744 4.19369282 -1 6 C-1.042721 4.33388095 -1.04063832 2.66617115 -1 1 C-0.67 0.67 -0.34 0.34 0 0 Z " fill="#81591C" transform="translate(19,24)"/>
</svg>
